<svg width="33" height="34" viewBox="0 0 33 34" fill="none" xmlns="http://www.w3.org/2000/svg">
<path fill-rule="evenodd" clip-rule="evenodd" d="M16.5627 0.698303C20.9309 0.698303 24.8262 3.69342 25.952 7.87458C26.1847 8.75285 26.1547 9.52603 25.7119 10.3442C25.0138 11.6354 24.5185 12.9941 24.601 14.5104C24.6311 14.9908 24.6461 15.4637 25.1339 15.734C26.3573 16.387 26.9503 17.498 27.318 18.7666C27.6032 19.765 28.1361 20.5382 29.307 20.3054C30.5379 20.0577 30.718 19.0969 30.6354 18.0235C30.6129 17.7682 30.5679 17.513 30.5679 17.2578C30.5679 16.9951 30.6279 16.7248 30.8906 16.6047C31.2284 16.4546 31.4836 16.6573 31.6562 16.905C33.0072 18.8041 33.1798 20.876 32.3617 23.0003C31.6562 24.8394 30.3352 25.9129 28.2712 25.9429C27.1679 25.9654 26.4099 27.4142 27.0103 28.3225C27.288 28.7503 27.6257 28.6002 27.8284 28.2774C28.0536 27.9246 28.1811 27.5042 28.3463 27.1139C28.4739 26.8061 28.5189 26.3858 28.9392 26.3633C29.4195 26.3332 29.5697 26.7686 29.7048 27.1139C30.2827 28.6753 30.1476 30.1691 29.0818 31.4677C28.0986 32.6763 26.7551 33.3143 25.2165 32.9465C24.0381 32.6613 23.1375 32.6012 22.0417 33.3594C20.8108 34.2151 19.077 33.7872 18.0338 32.7588C16.9305 31.6704 16.6227 30.2141 17.2832 28.7653C17.6285 28.0147 17.7335 27.3091 17.3883 26.5509C17.2082 26.1456 16.983 25.7627 16.4801 25.7777C15.9848 25.7928 15.7371 26.1681 15.5645 26.5734C15.2492 27.3241 15.3543 28.0597 15.662 28.8104C16.33 30.4618 15.8947 32.0457 14.5662 33.0366C13.2077 34.05 11.6466 34.1025 10.3031 32.9991C9.66516 32.4736 9.1623 32.4886 8.45679 32.7663C6.67799 33.4795 5.1769 32.8865 3.93099 31.5728C2.75263 30.3342 2.58751 28.8554 3.13541 27.2791C3.27801 26.8887 3.42062 26.3858 3.946 26.4008C4.41884 26.4158 4.47138 26.8887 4.59147 27.249C4.67403 27.4892 4.74908 27.7445 4.86917 27.9622C5.05681 28.2999 5.28948 28.6903 5.74731 28.5401C6.18263 28.39 5.97248 27.9696 5.97248 27.6469C5.97248 26.4308 5.55217 25.8903 4.15615 25.8678C1.63432 25.8303 -0.234545 23.1054 0.0581685 20.1778C0.17075 19.0669 0.433442 17.9859 1.07891 17.0326C1.24403 16.7849 1.43918 16.5146 1.78443 16.5747C2.23475 16.6497 2.22725 17.0401 2.24976 17.3779C2.27979 17.8433 2.24977 18.3162 2.28729 18.7891C2.35484 19.6149 2.82018 20.1328 3.63828 20.2829C4.46388 20.4331 5.13186 20.0878 5.36453 19.2996C5.83738 17.6857 6.44532 16.2369 8.09652 15.4787C8.48681 15.3061 8.41175 14.8106 8.43427 14.4353C8.51683 12.8289 7.96142 11.3952 7.12832 10.0815C6.66298 9.35337 6.65547 8.68529 6.90315 7.8971C8.30668 3.4382 11.9543 0.698303 16.5627 0.698303ZM11.7292 31.6854C13.6055 31.1224 14.0859 30.2817 13.3804 28.6528C12.4872 26.5884 13.0501 24.8469 14.5062 23.3906C15.2642 22.6325 16.0298 21.9194 16.5477 20.5682C16.9154 22.092 17.8912 22.8502 18.5441 23.811C19.4148 25.0946 19.9852 26.5734 19.1821 28.2249C18.4015 29.8388 19.3472 31.4527 21.2236 31.6629C20.3229 30.9122 20.6006 30.2066 21.141 29.4935C21.7039 28.7353 22.2218 27.9471 22.5746 27.0689C23.175 25.5375 22.7697 24.1863 21.4487 23.218C20.1428 22.2572 20.1353 22.1671 21.2311 20.936C21.4037 20.7483 21.5613 20.5306 21.764 20.3805C23.7829 18.9618 23.8805 17.0251 23.2651 14.8932C23.0024 13.9699 22.8298 13.0166 23.2125 12.1233C24.6085 8.84293 23.205 6.32823 21.066 4.0162C20.1728 3.05536 19.0095 2.5224 17.741 2.1846C16.6828 1.90686 16.0673 2.71757 15.3318 3.13794C14.7013 3.49825 15.3168 4.01621 15.4819 4.4666C15.7146 5.10466 15.4369 5.57757 14.8439 5.81027C14.3186 6.01295 13.9133 6.26818 13.8757 6.8687C13.7632 9.12818 13.5305 11.3877 15.1592 13.3544C16.2024 14.608 16.0898 14.9833 14.7689 15.9216C13.7556 16.6422 13.2903 17.4079 14.0859 18.6015C14.3261 18.9618 14.3336 19.4947 14.4161 19.9602C14.4687 20.2229 14.3936 20.6207 14.1384 20.5832C12.7199 20.403 12.3972 21.0711 12.5548 22.3397C12.5998 22.7076 12.0144 22.8277 11.7142 23.0529C9.8453 24.4566 9.56009 25.8003 10.7309 27.812C11.0762 28.405 11.4665 28.9605 11.8417 29.531C12.3371 30.2667 12.5473 30.9873 11.7292 31.6854ZM3.8034 27.7294C3.45814 28.2774 3.66079 28.6753 3.79589 29.0731C4.31377 30.5894 5.26696 31.1299 6.62545 30.702C8.02897 30.2592 8.53935 29.2233 8.07401 27.6994C7.75878 26.671 7.82633 25.6651 8.2016 24.6818C8.50182 23.8861 8.86959 23.1129 9.22985 22.3322C9.42499 21.9044 9.47002 21.499 9.04221 21.1837C8.57687 20.8459 8.3367 21.2513 8.08151 21.5065C7.15834 22.4223 6.67049 23.5408 6.64046 24.8319C6.61795 25.8978 6.67799 26.9713 6.72302 28.0372C6.74554 28.5777 6.75305 29.0956 6.18263 29.3584C5.69477 29.5836 5.27447 29.3434 4.86167 29.0881C4.3588 28.7879 4.27624 28.1723 3.8034 27.7294ZM25.8019 23.2856C25.5843 24.8094 25.0213 26.1831 24.3233 27.5118C23.7529 28.6002 24.0156 29.4785 24.9988 30.1841C26.6425 31.3626 28.2487 30.6045 28.8341 28.2549C28.2187 29.0056 27.6107 29.8088 26.6801 29.3434C25.7494 28.878 26.1847 27.9171 26.2748 27.1439C26.4324 25.8228 26.4774 24.5241 25.8019 23.2856ZM27.1154 20.343C27.0854 21.8968 28.4063 22.2271 29.2845 22.9327C29.5622 23.1504 29.9374 22.9628 30.2602 22.8277C31.7387 22.1896 32.2791 20.1403 31.476 18.1886C30.748 21.1687 29.5546 21.7692 27.1154 20.343Z" fill="#CA8DFF"/>
<path fill-rule="evenodd" clip-rule="evenodd" d="M23.0023 17.0551C22.9048 18.7591 20.8558 20.6508 19.1821 20.6433C18.2814 20.6433 18.3039 19.5923 18.7843 19.0744C19.2646 18.5639 20.0077 18.4513 20.5105 17.9634C20.9984 17.498 21.141 16.6573 21.7564 16.3045C22.3719 15.9592 23.0999 16.2519 23.0023 17.0551Z" fill="#CA8DFF"/>
</svg>
