<svg width="33" height="34" viewBox="0 0 33 34" fill="none" xmlns="http://www.w3.org/2000/svg">
<path fill-rule="evenodd" clip-rule="evenodd" d="M32.4892 3.92004C32.099 4.39296 31.6486 4.79831 31.2133 5.23369C30.065 6.3897 28.9091 7.53822 27.7533 8.69423C27.2504 9.19717 26.8902 9.21218 26.4173 8.69423C26.1922 8.44651 26.0646 8.48403 25.8544 8.70172C25.2089 9.37731 24.541 10.0379 23.873 10.691C23.6853 10.8711 23.6778 10.9762 23.8655 11.1639C24.7436 12.0271 25.6142 12.8979 26.4774 13.7687C27.2129 14.5043 26.9802 15.3375 25.9745 15.6153C22.7096 16.5086 19.4448 17.4093 16.1799 18.3026C15.5044 18.4903 14.979 18.2126 14.8214 17.6045C14.7688 17.4093 14.8064 17.2292 14.8514 17.049C15.4894 14.7145 16.1348 12.3875 16.7728 10.0529C17.0355 9.09208 17.2982 8.12373 17.5684 7.16289C17.8461 6.17953 18.6717 5.96935 19.3997 6.69748C20.2704 7.56824 21.1485 8.43148 22.0116 9.30975C22.1993 9.50492 22.3043 9.48993 22.4845 9.30226C23.1449 8.62667 23.8054 7.95107 24.4959 7.298C24.7286 7.0728 24.7061 6.9452 24.4809 6.76504C24.3158 6.63743 24.1732 6.47229 24.1357 6.2546C24.0981 6.01439 24.1357 5.78918 24.3083 5.60902C25.9595 3.97259 27.5657 2.29113 29.2544 0.69223C29.442 0.69223 29.6297 0.69223 29.8173 0.69223C30.2601 0.999999 30.5979 1.41285 30.9731 1.78818C31.476 2.29863 32.0314 2.76404 32.4667 3.34205C32.4892 3.54472 32.4892 3.73238 32.4892 3.92004ZM20.1653 13.9413C20.3979 13.9263 20.6081 13.8662 20.7732 13.7011C21.6514 12.8378 22.5145 11.9671 23.3926 11.0963C23.5052 10.9837 23.5127 10.8937 23.4001 10.7811C23.0699 10.4583 22.7396 10.128 22.4169 9.7977C22.3193 9.69261 22.2293 9.68509 22.1242 9.79018C21.2386 10.676 20.3454 11.5542 19.4748 12.455C19.2121 12.7252 19.1971 13.0781 19.3622 13.4234C19.5198 13.7687 19.8125 13.8963 20.1653 13.9413Z" fill="#CA8DFF"/>
<path fill-rule="evenodd" clip-rule="evenodd" d="M0.170654 15.0898C0.365796 14.752 0.658511 14.6394 1.04129 14.6394C4.38122 14.6469 7.72866 14.6394 11.0686 14.6469C11.7216 14.6469 11.9843 14.9097 11.9843 15.5702C11.9843 16.5986 11.9843 17.627 11.9843 18.6629C11.9843 19.3235 11.7216 19.5862 11.0686 19.5862C7.72866 19.5862 4.38122 19.5862 1.04129 19.5937C0.658511 19.5937 0.365796 19.4811 0.170654 19.1433C0.170654 17.7847 0.170654 16.441 0.170654 15.0898Z" fill="#CA8DFF"/>
<path fill-rule="evenodd" clip-rule="evenodd" d="M0.170709 28.5341C0.395873 28.2263 0.696092 28.1287 1.07137 28.1287C4.39629 28.1362 7.72121 28.1362 11.0386 28.1362C11.7441 28.1362 11.9843 28.3764 11.9843 29.082C11.9843 30.1029 11.9768 31.1238 11.9843 32.1372C11.9843 32.52 11.8717 32.8128 11.5265 33.008C7.83379 33.008 4.13359 33.008 0.4334 33.0155C0.223247 33.0155 0.148193 32.9929 0.148193 32.7527C0.178215 31.349 0.170709 29.9378 0.170709 28.5341Z" fill="#CA8DFF"/>
<path fill-rule="evenodd" clip-rule="evenodd" d="M14.2434 33.0155C13.8982 32.8278 13.7781 32.5351 13.7856 32.1522C13.7931 31.1088 13.7856 30.0729 13.7931 29.0295C13.7931 28.3839 14.0408 28.1362 14.6938 28.1362C18.0412 28.1362 21.3811 28.1362 24.7286 28.1362C25.3891 28.1362 25.6292 28.3689 25.6292 29.022C25.6292 30.0504 25.6217 31.0863 25.6367 32.1147C25.6442 32.49 25.5392 32.7978 25.2314 33.0155C21.5688 33.0155 17.9061 33.0155 14.2434 33.0155Z" fill="#CA8DFF"/>
<path fill-rule="evenodd" clip-rule="evenodd" d="M12.9 21.3878C14.5587 21.3878 16.2249 21.3878 17.8836 21.3878C18.5666 21.3878 18.8068 21.6355 18.8068 22.3261C18.8068 23.347 18.8068 24.3679 18.8068 25.3888C18.8068 26.0719 18.5666 26.3196 17.8761 26.3271C17.1105 26.3346 16.3375 26.3271 15.5719 26.3271C13.0801 26.3271 10.5883 26.3271 8.09646 26.3271C7.93134 26.3271 7.75872 26.3196 7.5936 26.2971C7.21082 26.237 6.97815 25.9968 6.97815 25.6215C6.97064 24.443 6.96314 23.2645 6.97815 22.0859C6.98565 21.658 7.28587 21.4028 7.75872 21.3953C8.70441 21.3878 9.6501 21.3953 10.6033 21.3953C11.3613 21.3878 12.1269 21.3878 12.9 21.3878Z" fill="#CA8DFF"/>
<path fill-rule="evenodd" clip-rule="evenodd" d="M26.5899 21.3878C28.2411 21.3878 29.8923 21.3878 31.5435 21.3878C32.2265 21.3878 32.4517 21.613 32.4517 22.2886C32.4517 23.332 32.4517 24.3679 32.4517 25.4113C32.4517 26.0719 32.2115 26.3196 31.536 26.3196C29.8022 26.3196 28.0685 26.3196 26.3347 26.3196C24.7811 26.3196 23.2199 26.3196 21.6663 26.3196C20.8482 26.3196 20.623 26.0869 20.623 25.2612C20.623 24.2853 20.623 23.3095 20.623 22.3261C20.623 21.628 20.8782 21.3803 21.5762 21.3803C23.2425 21.3878 24.9162 21.3878 26.5899 21.3878Z" fill="#CA8DFF"/>
</svg>
