<svg xmlns="http://www.w3.org/2000/svg" viewBox="0 0 25.9 19.6" style="enable-background:new 0 0 25.9 19.6" xml:space="preserve"><path d="M.2 14.4c-.2.2-.2.9-.2 1.1v.3c0 .4.2.6.5.8.5.4 1 .7 1.4.9l.6.3c.2.1.4.3.7.5 0-.1.1-.2 0-.3.2 0 .2.2.3.3.1.1.3.1.5.1-.1 0 .3.3.3.3.3.2.5.3.7.4.5.1.9.3 1.4.4.2.1.3 0 .4-.1.4-.6.8-1.1 1.1-1.8.1-.2.1-.2-.1-.3-.5-.2-1-.4-1.5-.7-.1-.1-.2-.1-.3-.2 0 0-.1-.1 0-.1.1-.3.4-.4.7-.3 1.8.8 3.6 1.2 5.5 1.3 2.4.1 4.7-.3 6.9-1.3.3-.1.4-.1.6.1.2.2.2.2-.1.3-.5.3-1.1.6-1.7.8-.3.1-.3.1-.1.4.3.6.7 1.2 1.1 1.8.1.2.2.2.4.1.5-.2 1-.3 1.5-.7.2-.2.5-.3.7-.5.1.2.4-.1.6-.1.2-.1.4-.1.6-.2 1-.4 1.8-1 2.6-1.6.1-.1.2-.2.2-.4 0-.5.1-1 .1-1.4 0-.3.1-.9-.1-1.2-.1-.1-.2-.1-.2-.2-.1-.1 0-.2-.1-.4s-.3-.3-.3-.6c-.1-.3.2-.5.3-.7.3-.6 0-1.3-.1-2 0-.7-.3-1.3-.5-2-.2-.6-.3-1.5-.7-1.9-.1-.1-.2-.1-.3-.2-.1-.1-.1-.2-.2-.3-.1-.1-.3-.1-.4-.2.3-.1.1-.5 0-.7-.1-.3-.3-.6-.4-1-.2-.6-.5-1.2-.9-1.7l-.3-.3c-.3-.1-.6-.3-1-.4-1.3-.5-2.6-.9-3.9-1.1-.2 0-.3 0-.4.2-.1.3-.3.6-.4.9-.1.2-.2.2-.3.2-.8-.1-1.7-.2-2.6-.2-1 0-1.9 0-2.9.2-.2 0-.3 0-.3-.2.2 0 0-.3-.2-.6C9.3 0 9.3 0 9 0 7.3.3 5.7.8 4.2 1.5c-.2.1-.3.2-.4.3-.3.6-.7 1.2-1.1 1.7h.4c-.1 0-.3.2-.4.3-.2.1-.1.1-.2.4 0 .2-.1.3-.2.4-.1.2-.2.2-.2.4v.2c0 .1-.1.1-.2.2 0 .1-.1.2-.2.3 0 .2 0 .4-.1.5-.1.2-.2.4-.3.7-.1.3-.2.6-.3 1-.2.7-.4 1.3-.5 2-.1.4-.2.9-.2 1.3s-.1.8 0 1.2c.1.2.1.3.1.5 0 .3.1.5.1.8 0-.1-.1-.1-.1-.2-.1.3-.1.6 0 .9H.2zm19.5-3.5v.6c-.2 0-.2.1-.2.2-.3.6-.9 1.3-1.5 1.5-.8.3-1.7 0-2.3-.7-.9-1.1-1-2.5-.2-3.5 1.1-1.4 3.1-1.2 3.8.4.1.2.2.3.2.5v.7c.1.2.1.3.2.3zm-8.8 0c0 .2.1.3 0 .5-.1.6-.4 1.1-.8 1.5-1 1-2.7.6-3.5-.6-.1-.1-.2-.2-.2-.3 0-.1-.1 0-.1-.1v-.2c0-.1-.2-.1-.2-.2v-.2c0-.2.1-.2.1-.4 0-.9.5-1.9 1.3-2.4.4-.2.8-.4 1.2-.3.5 0 1.3.2 1.3.9h.4c.1.1.1.2.2.3.1.1.2.1.3.3.1.1 0 .3.1.4-.2.1-.2.4-.1.8z" style="fill-rule:evenodd;clip-rule:evenodd;fill:#fff"/></svg>