<?xml version="1.0" encoding="utf-8"?>
<!-- Generator: Adobe Illustrator 23.0.1, SVG Export Plug-In . SVG Version: 6.00 Build 0)  -->
<svg version="1.1" id="Layer_1" xmlns="http://www.w3.org/2000/svg" xmlns:xlink="http://www.w3.org/1999/xlink" x="0px" y="0px"
	 viewBox="0 0 170.9 197.9" style="enable-background:new 0 0 170.9 197.9;" xml:space="preserve">
<style type="text/css">
	.st0{display:none;fill:url(#SVGID_1_);}
	.st1{opacity:0.6;}
	.st2{fill:url(#SVGID_2_);}
	.st3{fill:url(#SVGID_3_);}
	.st4{fill:url(#SVGID_4_);}
	.st5{fill:url(#SVGID_5_);}
	.st6{fill:url(#SVGID_6_);}
	.st7{fill:url(#SVGID_7_);}
	.st8{fill:url(#SVGID_8_);}
	.st9{fill:url(#SVGID_9_);}
	.st10{fill:url(#SVGID_10_);}
	.st11{fill:url(#SVGID_11_);}
	.st12{fill:url(#SVGID_12_);}
	.st13{fill:url(#SVGID_13_);}
	.st14{fill:url(#SVGID_14_);}
	.st15{fill:url(#SVGID_15_);}
	.st16{fill:url(#SVGID_16_);}
	.st17{fill:url(#SVGID_17_);}
</style>
<radialGradient id="SVGID_1_" cx="1808.5133" cy="520.4261" r="765.7404" gradientTransform="matrix(1.2566 0 0 1.3858 -1232.3505 -1402.6775)" gradientUnits="userSpaceOnUse">
	<stop  offset="0" style="stop-color:#3D1E5B"/>
	<stop  offset="6.924987e-02" style="stop-color:#391E56"/>
	<stop  offset="0.3582" style="stop-color:#2A1B41"/>
	<stop  offset="0.6198" style="stop-color:#1F1633"/>
	<stop  offset="0.8426" style="stop-color:#171229"/>
	<stop  offset="1" style="stop-color:#141026"/>
</radialGradient>
<rect x="-41.1" y="-1213" class="st0" width="1920" height="1080"/>
<g class="st1">
	<g>
		<linearGradient id="SVGID_2_" gradientUnits="userSpaceOnUse" x1="253.1888" y1="-459.0258" x2="1725.6615" y2="-459.0258">
			<stop  offset="5.586592e-03" style="stop-color:#E7D71A"/>
			<stop  offset="1" style="stop-color:#F58120"/>
		</linearGradient>
		<path class="st2" d="M1615.8-361.4c-46.5,0-84.3-37.8-84.3-84.3c0-28.5,14.1-54.8,37.6-70.4c16.9-11.2,32.1-24.6,45-39.8
			c0.4-0.5,1-0.8,1.6-0.8c0,0,0,0,0,0c0.6,0,1.2,0.3,1.6,0.8l0.3,0.4c12.1,14.6,27.2,28,44.9,40c25,16.9,38.9,44.7,37.3,74.6
			c-2.4,43.3-38.2,78.2-81.6,79.5C1617.5-361.4,1616.6-361.4,1615.8-361.4z M1615.7-551.2c-12.9,14.7-27.7,27.7-44.3,38.7
			c-22.4,14.8-35.7,39.8-35.7,66.8c0,44.1,35.9,80,80,80c0.8,0,1.7,0,2.5,0c41.1-1.2,75.1-34.4,77.4-75.5
			c1.6-28.3-11.7-54.8-35.4-70.8C1642.9-523.7,1627.9-536.9,1615.7-551.2z"/>
	</g>
	<g>
		
			<image style="overflow:visible;opacity:0.75;" width="571" height="572" xlink:href="20A7161D.png"  transform="matrix(0.24 0 0 0.24 1553.2485 -509.9372)">
		</image>
		<g>
			<linearGradient id="SVGID_3_" gradientUnits="userSpaceOnUse" x1="253.1853" y1="-447.3808" x2="1725.6552" y2="-447.3808">
				<stop  offset="5.586592e-03" style="stop-color:#E7D71A"/>
				<stop  offset="1" style="stop-color:#F58120"/>
			</linearGradient>
			<path class="st3" d="M1560.1-447.4c0-30.7,24.9-55.7,55.7-55.7c30.7,0,55.7,24.9,55.7,55.7c0,30.7-24.9,55.7-55.7,55.7
				C1585-391.7,1560.1-416.6,1560.1-447.4z M1588.4-460.2c0-3.3-2.4-6.1-6.4-6.1h-7.6v19.5h3.8v-7.3h3.7
				C1586-454.2,1588.4-456.9,1588.4-460.2z M1584.6-460.2c0,1.6-1.1,2.7-2.8,2.7h-3.6v-5.3h3.6
				C1583.5-462.9,1584.6-461.8,1584.6-460.2z M1605.6-446.8v-19.5h-3.8v8h-6.6v-8h-3.8v19.5h3.8v-8.2h6.6v8.2H1605.6z M1625.4-446.8
				l-7.1-19.5h-3l-7.1,19.5h4l1.2-3.4h6.9l1.1,3.4H1625.4z M1619.3-453.5h-4.8l2.5-7.1L1619.3-453.5z M1641.1-452.6
				c0-1.7-0.5-3.1-1.5-4.1c-0.8-0.8-1.9-1.3-3.7-1.5l-2.3-0.3c-0.8-0.1-1.4-0.4-1.8-0.8c-0.4-0.4-0.6-0.9-0.6-1.4c0-1.3,1-2.5,3-2.5
				c1.3,0,2.8,0.2,4,1.3l2.4-2.4c-1.7-1.6-3.6-2.3-6.3-2.3c-4.2,0-6.8,2.4-6.8,5.9c0,1.6,0.5,2.9,1.4,3.8c0.9,0.8,2.1,1.4,3.8,1.6
				l2.4,0.3c0.9,0.1,1.3,0.3,1.7,0.7c0.4,0.4,0.6,1,0.6,1.6c0,1.6-1.2,2.4-3.4,2.4c-1.8,0-3.5-0.4-4.7-1.6l-2.5,2.5
				c1.9,1.9,4.2,2.6,7.1,2.6C1638-446.7,1641.1-448.8,1641.1-452.6z M1657.1-446.8v-3.4h-9v-4.7h7.7v-3.4h-7.7v-4.6h9v-3.4h-12.8
				v19.5H1657.1z M1621.4-423.9c0-3.6-2.5-5.8-5.1-5.8c-0.5,0-1,0.1-1.5,0.2l4-8h-3.9l-4.1,8.4c-0.9,1.8-1.6,3.4-1.6,5.2
				c0,3.9,2.6,6,6.1,6C1618.8-417.9,1621.4-420.1,1621.4-423.9z M1617.8-423.9c0,1.8-1.1,2.8-2.5,2.8c-1.5,0-2.5-1-2.5-2.8
				c0-1.8,1.1-2.8,2.5-2.8C1616.8-426.7,1617.8-425.6,1617.8-423.9z"/>
		</g>
	</g>
</g>
<g>
	
		<image style="overflow:visible;opacity:0.75;" width="7321" height="345" xlink:href="20A7161F.png"  transform="matrix(0.24 0 0 0.24 47.2335 -643.1522)">
	</image>
	<g>
		<linearGradient id="SVGID_4_" gradientUnits="userSpaceOnUse" x1="55.3759" y1="-608.7709" x2="1782.1665" y2="-608.7709">
			<stop  offset="0" style="stop-color:#F6891F"/>
			<stop  offset="1" style="stop-color:#653092"/>
		</linearGradient>
		<path class="st4" d="M1769.5-620.2h-410.2l-17-14.7l-17,14.7H797.7l-15.4-13.3l-15.4,13.3H236.4l-14.3-12.4l-14.3,12.4H68
			c-7.1,0-12.9,5.3-12.6,11.8c0.2,6.2,6.2,11.1,13.2,11.1h409.8l17.2,14.9l17.2-14.9h525.7l17.2,14.9l17.2-14.9h525.8l17.2,14.9
			l17.2-14.9h136.7c7,0,12.6-5.1,12.6-11.4C1782.2-615.1,1776.5-620.2,1769.5-620.2z"/>
	</g>
</g>
<g>
	<linearGradient id="SVGID_5_" gradientUnits="userSpaceOnUse" x1="51.1132" y1="-757.9394" x2="1523.577" y2="-757.9394">
		<stop  offset="0" style="stop-color:#E7D71A"/>
		<stop  offset="1" style="stop-color:#F58120"/>
	</linearGradient>
	<path class="st5" d="M222.1-660.3C222.1-660.3,222.1-660.3,222.1-660.3c-0.6,0-1.3-0.3-1.7-0.8l-0.3-0.4
		c-12.1-14.6-27.2-28-44.9-40c-25-16.9-38.9-44.7-37.3-74.6c2.4-43.3,38.2-78.2,81.6-79.5c47.7-1.4,86.9,36.9,86.9,84.3
		c0,28.5-14.1,54.8-37.6,70.4c-16.9,11.2-32.1,24.6-45,39.8C223.4-660.6,222.7-660.3,222.1-660.3z M222.1-851.3c-0.8,0-1.7,0-2.5,0
		c-41.1,1.2-75.1,34.4-77.4,75.5c-1.6,28.3,11.7,54.8,35.4,70.8c17.4,11.7,32.4,24.9,44.5,39.2c12.8-14.7,27.7-27.7,44.3-38.7
		c22.4-14.8,35.7-39.8,35.7-66.8C302.1-815.4,266.2-851.3,222.1-851.3z"/>
</g>
<g>
	
		<image style="overflow:visible;opacity:0.75;" width="572" height="572" xlink:href="20A7161A.png"  transform="matrix(0.24 0 0 0.24 159.5685 -832.2572)">
	</image>
	<g>
		<g>
			<linearGradient id="SVGID_6_" gradientUnits="userSpaceOnUse" x1="51.1128" y1="-769.5851" x2="1523.5884" y2="-769.5851">
				<stop  offset="0" style="stop-color:#E7D71A"/>
				<stop  offset="1" style="stop-color:#F58120"/>
			</linearGradient>
			<path class="st6" d="M277.8-769.6c0,30.7-24.9,55.7-55.7,55.7c-30.7,0-55.7-24.9-55.7-55.7c0-30.7,24.9-55.7,55.7-55.7
				C252.9-825.3,277.8-800.3,277.8-769.6z M194.8-781.3c0-3.3-2.4-6.1-6.4-6.1h-7.6v19.5h3.8v-7.3h3.7
				C192.4-775.2,194.8-778,194.8-781.3z M191-781.3c0,1.6-1.1,2.7-2.8,2.7h-3.6v-5.3h3.6C189.9-784,191-782.9,191-781.3z M212-767.9
				v-19.5h-3.8v8h-6.6v-8h-3.8v19.5h3.8v-8.2h6.6v8.2H212z M231.7-767.9l-7.1-19.5h-3l-7.1,19.5h4l1.2-3.4h6.9l1.1,3.4H231.7z
				 M225.6-774.5h-4.8l2.5-7.1L225.6-774.5z M247.4-773.6c0-1.7-0.5-3.1-1.5-4.1c-0.8-0.8-1.9-1.3-3.7-1.5l-2.3-0.3
				c-0.8-0.1-1.4-0.4-1.8-0.8c-0.4-0.4-0.6-0.9-0.6-1.4c0-1.3,1-2.5,3-2.5c1.3,0,2.8,0.2,4,1.3l2.4-2.4c-1.7-1.6-3.6-2.3-6.3-2.3
				c-4.2,0-6.8,2.4-6.8,5.9c0,1.6,0.5,2.9,1.4,3.8c0.9,0.8,2.1,1.4,3.8,1.6l2.4,0.3c0.9,0.1,1.3,0.3,1.7,0.7c0.4,0.4,0.6,1,0.6,1.6
				c0,1.6-1.2,2.4-3.4,2.4c-1.8,0-3.5-0.4-4.7-1.6l-2.5,2.5c1.9,1.9,4.2,2.6,7.1,2.6C244.3-767.7,247.4-769.8,247.4-773.6z
				 M263.4-767.9v-3.4h-9v-4.7h7.7v-3.4h-7.7v-4.6h9v-3.4h-12.8v19.5H263.4z M224.6-739.1v-19.5h-3.6l-4,3.4v3.8l4-3.4v15.6H224.6z"
				/>
		</g>
	</g>
</g>
<g class="st1">
	<g>
		<linearGradient id="SVGID_7_" gradientUnits="userSpaceOnUse" x1="90.7511" y1="-459.0258" x2="1563.217" y2="-459.0258">
			<stop  offset="0" style="stop-color:#E7D71A"/>
			<stop  offset="1" style="stop-color:#F58120"/>
		</linearGradient>
		<path class="st7" d="M495.5-361.4c-46.5,0-84.3-37.8-84.3-84.3c0-28.5,14.1-54.8,37.6-70.4c16.9-11.2,32.1-24.6,45-39.8
			c0.4-0.5,1-0.8,1.7-0.8c0.6,0,1.2,0.3,1.6,0.8l0.3,0.4c12.1,14.6,27.2,28,44.9,40c25,16.9,38.9,44.7,37.3,74.6
			c-2.4,43.3-38.2,78.2-81.6,79.5C497.2-361.4,496.3-361.4,495.5-361.4z M495.4-551.2c-12.9,14.7-27.8,27.7-44.3,38.7
			c-22.4,14.8-35.7,39.8-35.7,66.8c0,45,37.3,81.4,82.5,80c41.1-1.2,75.1-34.4,77.4-75.5C577-469.5,563.7-496,540-512
			C522.6-523.7,507.6-536.9,495.4-551.2z"/>
	</g>
	<g>
		
			<image style="overflow:visible;opacity:0.75;" width="572" height="572" xlink:href="20A7161B.png"  transform="matrix(0.24 0 0 0.24 432.9285 -509.9372)">
		</image>
		<g>
			<linearGradient id="SVGID_8_" gradientUnits="userSpaceOnUse" x1="90.7507" y1="-447.3808" x2="1563.2196" y2="-447.3808">
				<stop  offset="0" style="stop-color:#E7D71A"/>
				<stop  offset="1" style="stop-color:#F58120"/>
			</linearGradient>
			<path class="st8" d="M439.8-447.4c0-30.7,24.9-55.7,55.7-55.7c30.7,0,55.7,24.9,55.7,55.7c0,30.7-24.9,55.7-55.7,55.7
				C464.7-391.7,439.8-416.6,439.8-447.4z M468.1-460.2c0-3.3-2.4-6.1-6.4-6.1h-7.6v19.5h3.8v-7.3h3.7
				C465.7-454.2,468.1-456.9,468.1-460.2z M464.3-460.2c0,1.6-1.1,2.7-2.8,2.7H458v-5.3h3.6C463.2-462.9,464.3-461.8,464.3-460.2z
				 M485.3-446.8v-19.5h-3.8v8h-6.6v-8h-3.8v19.5h3.8v-8.2h6.6v8.2H485.3z M505.1-446.8l-7.1-19.5h-3l-7.1,19.5h4l1.2-3.4h6.9
				l1.1,3.4H505.1z M499-453.5h-4.8l2.5-7.1L499-453.5z M520.8-452.6c0-1.7-0.5-3.1-1.5-4.1c-0.8-0.8-1.9-1.3-3.7-1.5l-2.3-0.3
				c-0.8-0.1-1.4-0.4-1.8-0.8c-0.4-0.4-0.6-0.9-0.6-1.4c0-1.3,1-2.5,3-2.5c1.3,0,2.8,0.2,4,1.3l2.4-2.4c-1.7-1.6-3.6-2.3-6.3-2.3
				c-4.2,0-6.8,2.4-6.8,5.9c0,1.6,0.5,2.9,1.4,3.8c0.9,0.8,2.1,1.4,3.8,1.6l2.4,0.3c0.9,0.1,1.3,0.3,1.7,0.7c0.4,0.4,0.6,1,0.6,1.6
				c0,1.6-1.2,2.4-3.4,2.4c-1.8,0-3.5-0.4-4.7-1.6l-2.5,2.5c1.9,1.9,4.2,2.6,7.1,2.6C517.7-446.7,520.8-448.8,520.8-452.6z
				 M536.8-446.8v-3.4h-9v-4.7h7.7v-3.4h-7.7v-4.6h9v-3.4h-12.8v19.5H536.8z M501.1-418v-3.2h-7.5l5.4-6.3c1.3-1.6,2.1-2.6,2.1-4.5
				c0-3.5-2.5-5.7-5.9-5.7c-3.3,0-5.9,2.1-5.9,5.7h3.6c0-1.9,1.2-2.5,2.4-2.5c1.5,0,2.4,1,2.4,2.4c0,0.9-0.3,1.5-1,2.4l-7.3,8.5v3.2
				H501.1z"/>
		</g>
	</g>
</g>
<g class="st1">
	<g>
		<linearGradient id="SVGID_9_" gradientUnits="userSpaceOnUse" x1="171.9689" y1="-459.0258" x2="1644.4409" y2="-459.0258">
			<stop  offset="0" style="stop-color:#E7D71A"/>
			<stop  offset="1" style="stop-color:#F58120"/>
		</linearGradient>
		<path class="st9" d="M1055.6-361.4c-46.5,0-84.3-37.8-84.3-84.3c0-28.5,14.1-54.8,37.6-70.4c16.9-11.2,32.1-24.6,45-39.8
			c0.4-0.5,1-0.8,1.6-0.8c0,0,0,0,0,0c0.6,0,1.2,0.3,1.6,0.8l0.3,0.4c12.1,14.6,27.2,28,44.9,40c25,16.9,38.9,44.7,37.3,74.6
			c-2.4,43.3-38.2,78.2-81.6,79.5C1057.4-361.4,1056.5-361.4,1055.6-361.4z M1055.6-551.2c-12.9,14.7-27.7,27.7-44.3,38.7
			c-22.4,14.8-35.7,39.8-35.7,66.8c0,44.1,35.9,80,80,80c0.8,0,1.7,0,2.5,0c41.1-1.2,75.1-34.4,77.4-75.5
			c1.6-28.3-11.7-54.8-35.4-70.8C1082.7-523.7,1067.7-536.9,1055.6-551.2z"/>
	</g>
	<g>
		
			<image style="overflow:visible;opacity:0.75;" width="572" height="572" xlink:href="20A71625.png"  transform="matrix(0.24 0 0 0.24 993.0885 -509.9372)">
		</image>
		<g>
			<linearGradient id="SVGID_10_" gradientUnits="userSpaceOnUse" x1="171.9604" y1="-447.3808" x2="1644.4434" y2="-447.3808">
				<stop  offset="0" style="stop-color:#E7D71A"/>
				<stop  offset="1" style="stop-color:#F58120"/>
			</linearGradient>
			<path class="st10" d="M999.9-447.4c0-30.7,24.9-55.7,55.7-55.7c30.7,0,55.7,24.9,55.7,55.7c0,30.7-24.9,55.7-55.7,55.7
				C1024.9-391.7,999.9-416.6,999.9-447.4z M1028.3-460.2c0-3.3-2.4-6.1-6.4-6.1h-7.6v19.5h3.8v-7.3h3.7
				C1025.9-454.2,1028.3-456.9,1028.3-460.2z M1024.5-460.2c0,1.6-1.1,2.7-2.8,2.7h-3.6v-5.3h3.6
				C1023.4-462.9,1024.5-461.8,1024.5-460.2z M1045.5-446.8v-19.5h-3.8v8h-6.6v-8h-3.8v19.5h3.8v-8.2h6.6v8.2H1045.5z M1065.2-446.8
				l-7.1-19.5h-3l-7.1,19.5h4l1.2-3.4h6.9l1.1,3.4H1065.2z M1059.1-453.5h-4.8l2.5-7.1L1059.1-453.5z M1081-452.6
				c0-1.7-0.5-3.1-1.5-4.1c-0.8-0.8-1.9-1.3-3.7-1.5l-2.3-0.3c-0.8-0.1-1.4-0.4-1.8-0.8c-0.4-0.4-0.6-0.9-0.6-1.4c0-1.3,1-2.5,3-2.5
				c1.3,0,2.8,0.2,4,1.3l2.4-2.4c-1.7-1.6-3.6-2.3-6.3-2.3c-4.2,0-6.8,2.4-6.8,5.9c0,1.6,0.5,2.9,1.4,3.8c0.9,0.8,2.1,1.4,3.8,1.6
				l2.4,0.3c0.9,0.1,1.3,0.3,1.7,0.7c0.4,0.4,0.6,1,0.6,1.6c0,1.6-1.2,2.4-3.4,2.4c-1.8,0-3.5-0.4-4.7-1.6l-2.5,2.5
				c1.9,1.9,4.2,2.6,7.1,2.6C1077.8-446.7,1081-448.8,1081-452.6z M1096.9-446.8v-3.4h-9v-4.7h7.7v-3.4h-7.7v-4.6h9v-3.4h-12.8v19.5
				H1096.9z M1061.8-420.8v-3.4h-1.8v-3.6h-3.4v3.6h-4.1l6.7-13.4h-3.9l-6.7,13.4v3.4h8v2.8h3.4v-2.8H1061.8z"/>
		</g>
	</g>
</g>
<g>
	<linearGradient id="SVGID_11_" gradientUnits="userSpaceOnUse" x1="132.3352" y1="-757.9394" x2="1604.8005" y2="-757.9394">
		<stop  offset="0" style="stop-color:#E7D71A"/>
		<stop  offset="1" style="stop-color:#F58120"/>
	</linearGradient>
	<path class="st11" d="M782.3-660.3C782.3-660.3,782.3-660.3,782.3-660.3c-0.6,0-1.3-0.3-1.7-0.8l-0.3-0.4
		c-12.1-14.6-27.2-28-44.9-40c-25-16.9-38.9-44.7-37.3-74.6c2.4-43.3,38.2-78.2,81.6-79.5c47.7-1.4,86.9,36.9,86.9,84.3
		c0,28.5-14.1,54.8-37.6,70.4c-16.9,11.2-32.1,24.6-45,39.8C783.5-660.6,782.9-660.3,782.3-660.3z M782.3-851.3c-0.8,0-1.7,0-2.5,0
		c-41.1,1.2-75.1,34.4-77.4,75.5c-1.6,28.3,11.7,54.8,35.4,70.8c17.4,11.7,32.4,24.9,44.5,39.2c12.8-14.7,27.7-27.7,44.3-38.7
		c22.4-14.8,35.7-39.8,35.7-66.8C862.3-815.4,826.4-851.3,782.3-851.3z"/>
</g>
<g>
	
		<image style="overflow:visible;opacity:0.75;" width="572" height="572" xlink:href="20A71627.png"  transform="matrix(0.24 0 0 0.24 719.7285 -832.2572)">
	</image>
	<g>
		<linearGradient id="SVGID_12_" gradientUnits="userSpaceOnUse" x1="132.3348" y1="-769.5851" x2="1604.8037" y2="-769.5851">
			<stop  offset="0" style="stop-color:#E7D71A"/>
			<stop  offset="1" style="stop-color:#F58120"/>
		</linearGradient>
		<path class="st12" d="M837.9-769.6c0,30.7-24.9,55.7-55.7,55.7c-30.7,0-55.7-24.9-55.7-55.7c0-30.7,24.9-55.7,55.7-55.7
			C813-825.3,837.9-800.3,837.9-769.6z M754.9-781.3c0-3.3-2.4-6.1-6.4-6.1h-7.6v19.5h3.8v-7.3h3.7
			C752.5-775.2,754.9-778,754.9-781.3z M751.1-781.3c0,1.6-1.1,2.7-2.8,2.7h-3.6v-5.3h3.6C750-784,751.1-782.9,751.1-781.3z
			 M772.1-767.9v-19.5h-3.8v8h-6.6v-8h-3.8v19.5h3.8v-8.2h6.6v8.2H772.1z M791.9-767.9l-7.1-19.5h-3l-7.1,19.5h4l1.2-3.4h6.9
			l1.1,3.4H791.9z M785.7-774.5h-4.8l2.5-7.1L785.7-774.5z M807.6-773.6c0-1.7-0.5-3.1-1.5-4.1c-0.8-0.8-1.9-1.3-3.7-1.5l-2.3-0.3
			c-0.8-0.1-1.4-0.4-1.8-0.8c-0.4-0.4-0.6-0.9-0.6-1.4c0-1.3,1-2.5,3-2.5c1.3,0,2.8,0.2,4,1.3l2.4-2.4c-1.7-1.6-3.6-2.3-6.3-2.3
			c-4.2,0-6.8,2.4-6.8,5.9c0,1.6,0.5,2.9,1.4,3.8c0.9,0.8,2.1,1.4,3.8,1.6l2.4,0.3c0.9,0.1,1.3,0.3,1.7,0.7c0.4,0.4,0.6,1,0.6,1.6
			c0,1.6-1.2,2.4-3.4,2.4c-1.8,0-3.5-0.4-4.7-1.6l-2.5,2.5c1.9,1.9,4.2,2.6,7.1,2.6C804.4-767.7,807.6-769.8,807.6-773.6z
			 M823.6-767.9v-3.4h-9v-4.7h7.7v-3.4h-7.7v-4.6h9v-3.4h-12.8v19.5H823.6z M788-744.7c0-2.4-1.1-3.7-2.5-4.4c1.3-0.7,2.2-1.9,2.2-4
			c0-3.3-2.5-5.6-5.9-5.6c-3.3,0-5.9,2.1-6,5.6h3.6c0.1-1.5,1.1-2.4,2.4-2.4c1.3,0,2.4,0.8,2.4,2.5c0,1.4-0.7,2.4-2.5,2.4h-0.5v3.1
			h0.5c1.8,0,2.7,1.1,2.7,2.7c0,1.8-1.1,2.7-2.6,2.7c-1.4,0-2.6-0.8-2.7-2.5h-3.6c0.1,4.1,3,5.7,6.2,5.7
			C785.1-738.9,788-740.8,788-744.7z"/>
	</g>
</g>
<g class="st1">
	<g>
		<linearGradient id="SVGID_13_" gradientUnits="userSpaceOnUse" x1="213.5521" y1="-757.9396" x2="1686.0243" y2="-757.9396">
			<stop  offset="0" style="stop-color:#E7D71A"/>
			<stop  offset="1" style="stop-color:#F58120"/>
		</linearGradient>
		<path class="st13" d="M1342.4-660.3C1342.4-660.3,1342.4-660.3,1342.4-660.3c-0.6,0-1.3-0.3-1.7-0.8l-0.3-0.4
			c-12.1-14.6-27.2-28-44.9-40c-25-16.9-38.9-44.7-37.3-74.6c2.4-43.3,38.2-78.2,81.6-79.5c47.7-1.4,86.9,36.9,86.9,84.3
			c0,28.5-14.1,54.8-37.6,70.4c-16.9,11.2-32.1,24.6-45,39.8C1343.7-660.6,1343-660.3,1342.4-660.3z M1342.4-851.3
			c-0.8,0-1.7,0-2.5,0c-41.1,1.2-75.1,34.4-77.4,75.5c-1.6,28.3,11.7,54.8,35.4,70.8c17.4,11.7,32.4,24.9,44.5,39.2
			c12.8-14.7,27.7-27.7,44.3-38.7c22.4-14.8,35.7-39.8,35.7-66.8C1422.4-815.4,1386.5-851.3,1342.4-851.3z"/>
	</g>
	<g>
		
			<image style="overflow:visible;opacity:0.75;" width="571" height="572" xlink:href="20A7162A.png"  transform="matrix(0.24 0 0 0.24 1279.8885 -832.2572)">
		</image>
		<g>
			<linearGradient id="SVGID_14_" gradientUnits="userSpaceOnUse" x1="213.5502" y1="-769.5851" x2="1686.0212" y2="-769.5851">
				<stop  offset="0" style="stop-color:#E7D71A"/>
				<stop  offset="1" style="stop-color:#F58120"/>
			</linearGradient>
			<path class="st14" d="M1398.1-769.6c0,30.7-24.9,55.7-55.7,55.7c-30.7,0-55.7-24.9-55.7-55.7c0-30.7,24.9-55.7,55.7-55.7
				C1373.2-825.3,1398.1-800.3,1398.1-769.6z M1315.1-781.3c0-3.3-2.4-6.1-6.4-6.1h-7.5v19.5h3.8v-7.3h3.7
				C1312.7-775.2,1315.1-778,1315.1-781.3z M1311.3-781.3c0,1.6-1.1,2.7-2.8,2.7h-3.6v-5.3h3.6
				C1310.2-784,1311.3-782.9,1311.3-781.3z M1332.3-767.9v-19.5h-3.8v8h-6.6v-8h-3.8v19.5h3.8v-8.2h6.6v8.2H1332.3z M1352-767.9
				l-7.1-19.5h-3l-7.1,19.5h4l1.2-3.4h6.9l1.1,3.4H1352z M1345.9-774.5h-4.8l2.5-7.1L1345.9-774.5z M1367.7-773.6
				c0-1.7-0.5-3.1-1.5-4.1c-0.8-0.8-1.9-1.3-3.7-1.5l-2.3-0.3c-0.8-0.1-1.4-0.4-1.8-0.8c-0.4-0.4-0.6-0.9-0.6-1.4c0-1.3,1-2.5,3-2.5
				c1.3,0,2.8,0.2,4,1.3l2.4-2.4c-1.7-1.6-3.6-2.3-6.3-2.3c-4.2,0-6.8,2.4-6.8,5.9c0,1.6,0.5,2.9,1.4,3.8c0.9,0.8,2.1,1.4,3.8,1.6
				l2.4,0.3c0.9,0.1,1.3,0.3,1.7,0.7c0.4,0.4,0.6,1,0.6,1.6c0,1.6-1.2,2.4-3.4,2.4c-1.8,0-3.5-0.4-4.7-1.6l-2.5,2.5
				c1.9,1.9,4.2,2.6,7.1,2.6C1364.6-767.7,1367.7-769.8,1367.7-773.6z M1383.7-767.9v-3.4h-9v-4.7h7.7v-3.4h-7.7v-4.6h9v-3.4h-12.8
				v19.5H1383.7z M1348.1-745.6c0-1.8-0.2-3.7-1.8-5.2c-0.8-0.8-2-1.3-3.6-1.3c-1.3,0-2.4,0.5-2.9,1v-4.2h7.9v-3.2h-11.1v11h3.3
				c0.2-0.8,0.9-1.6,2.4-1.6c1.7,0,2.4,1.3,2.4,3.5c0,1.2-0.1,2.3-0.8,2.9c-0.4,0.4-1,0.6-1.7,0.6c-1.5,0-2.2-0.9-2.4-2.4h-3.6
				c0.1,1.4,0.4,2.8,1.6,4c0.8,0.8,2.3,1.6,4.4,1.6c2,0,3.4-0.7,4.3-1.6C1347.8-741.9,1348.1-743.4,1348.1-745.6z"/>
		</g>
	</g>
</g>
<linearGradient id="SVGID_15_" gradientUnits="userSpaceOnUse" x1="-3399.958" y1="-1180.2584" x2="6410.3818" y2="-1180.2584">
	<stop  offset="0" style="stop-color:#E7D71A"/>
	<stop  offset="1" style="stop-color:#F58120"/>
</linearGradient>
<rect x="559.2" y="-1370.6" class="st15" width="741.9" height="380.7"/>
<linearGradient id="SVGID_16_" gradientUnits="userSpaceOnUse" x1="1146.437" y1="-412.2584" x2="3433.6638" y2="-412.2584">
	<stop  offset="5.586592e-03" style="stop-color:#E7D71A"/>
	<stop  offset="1" style="stop-color:#F58120"/>
</linearGradient>
<rect x="1325.6" y="-521.1" class="st16" width="173" height="217.7"/>
<g>
	<linearGradient id="SVGID_17_" gradientUnits="userSpaceOnUse" x1="-319.2489" y1="98.9742" x2="1153.217" y2="98.9742">
		<stop  offset="0" style="stop-color:#E7D71A"/>
		<stop  offset="1" style="stop-color:#F58120"/>
	</linearGradient>
	<path class="st17" d="M85.5,196.6c-46.5,0-84.3-37.8-84.3-84.3c0-28.5,14.1-54.8,37.6-70.4c16.9-11.2,32.1-24.6,45-39.8
		c0.4-0.5,1-0.8,1.7-0.8c0.6,0,1.2,0.3,1.6,0.8l0.3,0.4c12.1,14.6,27.2,28,44.9,40c25,16.9,38.9,44.7,37.3,74.6
		c-2.4,43.3-38.2,78.2-81.6,79.5C87.2,196.6,86.3,196.6,85.5,196.6z M85.4,6.8C72.6,21.5,57.7,34.5,41.1,45.5
		C18.8,60.3,5.4,85.3,5.4,112.3c0,45,37.3,81.4,82.5,80c41.1-1.2,75.1-34.4,77.4-75.5C167,88.5,153.7,62,130,46
		C112.6,34.3,97.6,21.1,85.4,6.8z"/>
</g>
</svg>
