<?xml version="1.0" encoding="utf-8"?>
<!-- Generator: Adobe Illustrator 23.0.1, SVG Export Plug-In . SVG Version: 6.00 Build 0)  -->
<svg version="1.1" id="Layer_1" xmlns="http://www.w3.org/2000/svg" xmlns:xlink="http://www.w3.org/1999/xlink" x="0px" y="0px"
	 viewBox="0 0 168.6 195.3" style="enable-background:new 0 0 168.6 195.3;" xml:space="preserve">
<style type="text/css">
	.st0{display:none;fill:url(#SVGID_1_);}
	.st1{fill:url(#SVGID_2_);}
</style>
<radialGradient id="SVGID_1_" cx="1670.7175" cy="1375.9958" r="765.7404" gradientTransform="matrix(1.2566 0 0 1.3858 -1196.9921 -1732.7562)" gradientUnits="userSpaceOnUse">
	<stop  offset="0" style="stop-color:#3D1E5B"/>
	<stop  offset="6.924987e-02" style="stop-color:#391E56"/>
	<stop  offset="0.3582" style="stop-color:#2A1B41"/>
	<stop  offset="0.6198" style="stop-color:#1F1633"/>
	<stop  offset="0.8426" style="stop-color:#171229"/>
	<stop  offset="1" style="stop-color:#141026"/>
</radialGradient>
<rect x="-178.8" y="-357.4" class="st0" width="1920" height="1080"/>
<g>
	<linearGradient id="SVGID_2_" gradientUnits="userSpaceOnUse" x1="-86.6826" y1="97.6304" x2="1385.7813" y2="97.6304">
		<stop  offset="0" style="stop-color:#E7D71A"/>
		<stop  offset="1" style="stop-color:#F58120"/>
	</linearGradient>
	<path class="st1" d="M84.3,195.3C84.3,195.3,84.3,195.3,84.3,195.3c-0.6,0-1.3-0.3-1.7-0.8l-0.3-0.4c-12.1-14.6-27.2-28-44.9-40
		c-25-16.9-38.9-44.7-37.3-74.6C2.5,36.3,38.4,1.4,81.7,0c47.7-1.4,86.9,36.9,86.9,84.3c0,28.5-14.1,54.8-37.6,70.4
		c-16.9,11.2-32.1,24.6-45,39.8C85.6,195,85,195.3,84.3,195.3z M84.3,4.3c-0.8,0-1.7,0-2.5,0C40.7,5.6,6.7,38.7,4.4,79.8
		c-1.6,28.3,11.7,54.8,35.4,70.8c17.4,11.7,32.4,24.9,44.5,39.2c12.8-14.7,27.7-27.7,44.3-38.7c22.4-14.8,35.7-39.8,35.7-66.8
		C164.3,40.2,128.4,4.3,84.3,4.3z"/>
</g>
</svg>
