<svg xmlns="http://www.w3.org/2000/svg" viewBox="0 0 13.59 25.54"><g data-name="Layer 2"><path d="M9 19.86v-5.29c0-.29 0-.3.29-.3h3.12c.22 0 .31-.06.34-.28.2-1.35.41-2.69.61-4 0-.24 0-.26-.23-.26H9.3c-.3 0-.3 0-.3-.31V6.5a2.23 2.23 0 0 1 2.17-2.28c.71-.07 1.42 0 2.14 0 .27 0 .28 0 .28-.29V.6c0-.19 0-.28-.25-.31a29.76 29.76 0 0 0-3-.26 7.39 7.39 0 0 0-2.88.41 5.12 5.12 0 0 0-3.2 3.75A7.91 7.91 0 0 0 4 6.13v3.28c0 .28 0 .29-.29.29H.27C0 9.7 0 9.7 0 10v4c0 .27 0 .28.28.28h3.46c.29 0 .3 0 .3.31v10.58a.56.56 0 0 1 0 .22l.59.07a18.86 18.86 0 0 0 4.37-.1.82.82 0 0 1 0-.18Z" style="fill:#e6e7e8" data-name="Layer 1"/></g></svg>