<svg xmlns="http://www.w3.org/2000/svg" viewBox="0 0 18.48 18.47"><defs><style>.cls-1{fill:#e6e7e8}</style></defs><g id="Layer_2" data-name="Layer 2"><g id="Layer_1-2" data-name="Layer 1"><path class="cls-1" d="M18.4 5.15a5.83 5.83 0 0 0-.65-2.48A4.84 4.84 0 0 0 14.14.18 20.59 20.59 0 0 0 11 0H6.28c-.57 0-1.14.05-1.72.11A4.93 4.93 0 0 0 .14 4.58 26.71 26.71 0 0 0 0 7.26v5.31a9.26 9.26 0 0 0 .25 2.09A4.75 4.75 0 0 0 3.12 18a7.45 7.45 0 0 0 2.65.48h3.85c1.1 0 2.59 0 4.07-.1a5.57 5.57 0 0 0 2.21-.67 4.78 4.78 0 0 0 2.39-3.5 14.36 14.36 0 0 0 .17-2.62c.01-2.15.06-4.29-.06-6.44Zm-1.58 4.08v2.87a11.66 11.66 0 0 1-.13 1.78 3.25 3.25 0 0 1-3 2.83 11.23 11.23 0 0 1-1.53.1h-5.9a9.61 9.61 0 0 1-1.69-.12 3.28 3.28 0 0 1-2.84-3A16 16 0 0 1 1.66 12V6.56a10.47 10.47 0 0 1 .17-2.09 3.25 3.25 0 0 1 2.78-2.68 13 13 0 0 1 1.87-.13h5.54a10.61 10.61 0 0 1 2 .15 3.26 3.26 0 0 1 2.75 2.95 15.28 15.28 0 0 1 .1 1.91Z"/><path class="cls-1" d="M9 4.52a4.73 4.73 0 1 0 4.9 4.18A4.71 4.71 0 0 0 9 4.52Zm.2 7.81a3.09 3.09 0 1 1 3.09-3.1 3.08 3.08 0 0 1-3.05 3.1ZM14.17 3.22a1 1 0 0 0-1.07 1.09 1.08 1.08 0 1 0 2.16 0 1.06 1.06 0 0 0-1.09-1.09Z"/></g></g></svg>