<svg width="200" height="97" viewBox="0 0 200 97" fill="none" xmlns="http://www.w3.org/2000/svg">
<path d="M127.484 43.7431L122.572 37.3554L127.232 31.7415H123.418L119.729 36.6717V31.7415H116.634V43.7431H119.729V40.2344L120.539 39.2267L123.688 43.7431H127.484Z" fill="white"/>
<path d="M141.267 43.7431L136.732 31.7415H132.846L128.329 43.7431H131.838L132.432 42.0157H137.164L137.758 43.7431H141.267ZM136.318 39.3167H133.259L134.789 34.8004L136.318 39.3167Z" fill="white"/>
<path d="M146.447 43.7431V31.7415H143.353V43.7431H146.447Z" fill="white"/>
<path d="M158.749 43.7431V41.0441H153.495L158.623 34.2066V31.7415H149.428V34.4405H154.538L149.428 41.278V43.7431H158.749Z" fill="white"/>
<path d="M170.523 43.7431V41.0441H164.819V39.0108H170.397V36.3118H164.819V34.4405H170.523V31.7415H161.724V43.7431H170.523Z" fill="white"/>
<path d="M184.675 43.7431V31.7415H181.563V38.3451L176.704 31.7415H173.52V43.7431H176.614V36.7976L181.688 43.7431H184.675Z" fill="white"/>
<path d="M119.729 64.1355V59.4033H125.307V56.7043H119.729V54.833H125.433V52.134H116.634V64.1355H119.729Z" fill="white"/>
<path d="M131.401 64.1355V52.134H128.307V64.1355H131.401Z" fill="white"/>
<path d="M145.916 64.1355V52.134H142.803V58.7375L137.945 52.134H134.76V64.1355H137.855V57.1901L142.929 64.1355H145.916Z" fill="white"/>
<path d="M160.939 64.1355L156.404 52.134H152.518L148.001 64.1355H151.51L152.104 62.4082H156.836L157.43 64.1355H160.939ZM155.99 59.7092H152.932L154.461 55.1928L155.99 59.7092Z" fill="white"/>
<path d="M174.18 64.1355V52.134H171.068V58.7375L166.209 52.134H163.025V64.1355H166.119V57.1901L171.194 64.1355H174.18Z" fill="white"/>
<path d="M183.427 64.3515C186.324 64.3515 187.89 62.6781 188.663 61.1306L186 59.8711C185.604 60.8248 184.579 61.6165 183.427 61.6165C181.466 61.6165 180.08 60.105 180.08 58.1437C180.08 56.1825 181.466 54.671 183.427 54.671C184.579 54.671 185.604 55.4627 186 56.4164L188.663 55.1568C187.872 53.5734 186.324 51.936 183.427 51.936C179.739 51.936 176.932 54.4371 176.932 58.1437C176.932 61.8324 179.739 64.3515 183.427 64.3515Z" fill="white"/>
<path d="M200 64.1355V61.4365H194.296V59.4033H199.874V56.7043H194.296V54.833H200V52.134H191.201V64.1355H200Z" fill="white"/>
<path fill-rule="evenodd" clip-rule="evenodd" d="M63.1354 48.5413C63.1352 61.2896 67.0819 72.6805 71.099 80.9539C72.5164 83.8729 73.9328 86.3838 75.1684 88.4059C87.9735 79.7857 96.3971 65.1561 96.3971 48.559C96.3971 31.9554 87.9669 17.3207 75.1532 8.70192C73.9212 10.7196 72.5107 13.2218 71.0993 16.1286C67.0822 24.402 63.1355 35.793 63.1354 48.5413ZM68.9431 5.1661C67.6362 7.3194 66.1604 9.95174 64.6855 12.9894C60.3781 21.8607 56.0002 34.3494 56 48.5412C55.9998 62.7331 60.3777 75.2219 64.6852 84.0931C66.1665 87.1438 67.6487 89.7857 68.9597 91.9441C62.727 94.9033 55.7554 96.559 48.3971 96.559C21.8875 96.559 0.397125 75.0687 0.397125 48.559C0.397125 22.0494 21.8875 0.559021 48.3971 0.559021C55.7489 0.559021 62.7147 2.21182 68.9431 5.1661ZM48 19.5413V77.5413H41V19.5413H48Z" fill="white"/>
</svg>
