<svg xmlns="http://www.w3.org/2000/svg" viewBox="0 0 24.89 14.09"><defs><style>.cls-1{fill:#e6e7e8}</style></defs><g id="Layer_2" data-name="Layer 2"><g id="Layer_1-2" data-name="Layer 1"><path class="cls-1" d="M14 7.05A7 7 0 1 0 0 7a7 7 0 1 0 14 0ZM14.77 7.05a11 11 0 0 0 .38 3A6.18 6.18 0 0 0 16.67 13a2.08 2.08 0 0 0 3.15 0A4.91 4.91 0 0 0 21 11.16a11.36 11.36 0 0 0 .27-7.46 5.69 5.69 0 0 0-1.47-2.59 2.08 2.08 0 0 0-3.11 0 5 5 0 0 0-1.05 1.53 10.59 10.59 0 0 0-.87 4.41ZM22.5 7.21a20.18 20.18 0 0 0 .33 3.93 4.57 4.57 0 0 0 .5 1.54c.22.38.49.38.73 0a3 3 0 0 0 .29-.72 14.32 14.32 0 0 0 .45-2.76 24.19 24.19 0 0 0-.22-6.07A4.65 4.65 0 0 0 24 1.39c-.21-.35-.49-.35-.7 0a3.36 3.36 0 0 0-.39 1 19.66 19.66 0 0 0-.41 4.82Z"/></g></g></svg>