<svg width="37" height="35" viewBox="0 0 37 35" fill="none" xmlns="http://www.w3.org/2000/svg">
<path fill-rule="evenodd" clip-rule="evenodd" d="M14.2806 12.6429C13.7177 12.6429 13.7102 12.6729 13.9654 13.1383C14.3482 13.8364 14.7309 14.542 15.1212 15.2326C15.2939 15.5404 15.2788 15.7055 14.8886 15.7581C14.3256 15.8256 13.7552 15.8932 13.1923 15.9983C12.8546 16.0658 12.6819 15.9307 12.5318 15.6605C12.029 14.7522 11.5186 13.8439 11.0082 12.9431C10.9182 12.7855 10.8506 12.6278 10.8881 12.4477C11.2784 10.7437 11.9464 9.21984 13.5601 8.30404C14.1981 7.94372 14.9036 7.83113 15.6166 7.83864C19.9322 7.89869 24.2479 7.97378 28.556 8.04884C29.3516 8.06385 30.1472 8.1389 30.9503 8.12389C32.2862 8.10888 33.322 8.7019 34.1851 9.63272C37.0447 12.7029 37.3299 17.6723 34.8231 21.0427C34.5529 21.4105 34.4403 21.7784 34.4178 22.2288C34.2677 25.7418 34.0875 29.2474 33.9224 32.7529C33.8999 33.2033 33.8924 33.6612 33.8924 34.1041C33.8924 34.4569 33.7573 34.6521 33.367 34.6446C31.303 34.6146 29.2465 34.592 27.1825 34.577C26.7247 34.577 26.7772 34.2617 26.7622 33.969C26.6421 30.1106 26.6796 26.2447 26.6646 22.3864C26.6646 21.0952 26.477 21.2304 27.8205 21.2153C29.3441 21.2003 30.8677 21.2154 32.3913 21.1478C32.7891 21.1328 32.8942 21.0502 32.684 20.6749C31.2129 18.0851 29.7494 15.4954 28.2933 12.8906C28.1357 12.6128 27.9331 12.5077 27.6178 12.5153C26.4245 12.5228 17.5155 12.6353 14.2806 12.6429Z" fill="#CA8DFF"/>
<path fill-rule="evenodd" clip-rule="evenodd" d="M18.2585 34.577C15.0462 34.5245 12.3818 34.5845 9.71731 34.4944C9.27449 34.4794 9.10937 34.3443 9.06434 33.909C8.85418 31.8447 8.61401 29.7878 8.38884 27.7235C8.1862 25.8844 7.99105 24.0453 7.78841 22.2062C7.71335 21.4931 7.75088 21.433 8.47891 21.4255C12.8996 21.388 17.3128 21.3429 21.7336 21.2979C22.4916 21.2904 23.2572 21.2679 24.0152 21.2304C24.413 21.2078 24.5631 21.3579 24.5856 21.7633C24.7057 24.1279 24.8483 26.4925 24.9909 28.8645C25.0885 30.5235 25.2011 32.1824 25.2912 33.8414C25.3287 34.5695 25.3062 34.577 24.5931 34.577C22.289 34.577 20.0073 34.577 18.2585 34.577ZM16.78 30.5685C17.0577 30.591 17.3279 30.606 17.6056 30.6436C17.8908 30.6811 18.0259 30.6211 17.9658 30.2908C17.8758 29.8029 17.8307 29.2999 17.7407 28.8045C17.6731 28.4291 17.7256 28.1439 18.0109 27.8286C18.6188 27.1605 18.5362 25.9145 17.9133 25.3064C17.3354 24.7434 16.1645 24.7059 15.5265 25.2314C14.8285 25.8019 14.6109 26.9729 15.2188 27.656C15.6767 28.1664 15.6391 28.6618 15.6016 29.2248C15.5866 29.435 15.5491 29.6302 15.5265 29.8404C15.4665 30.516 15.4965 30.5535 16.157 30.5685C16.3596 30.576 16.5623 30.5685 16.78 30.5685Z" fill="#CA8DFF"/>
<path fill-rule="evenodd" clip-rule="evenodd" d="M10.4529 20.0819C10.3553 20.0669 10.0851 20.202 9.98004 19.9918C9.86746 19.7891 10.1076 19.624 10.2127 19.4514C10.5129 18.9409 10.8582 18.468 11.1359 17.9425C11.3686 17.5072 11.7213 17.4021 12.1566 17.3871C13.2149 17.3495 14.2657 17.2894 15.3239 17.2669C15.6542 17.2594 15.9244 17.1768 16.1871 16.9817C16.84 16.4937 17.5155 16.0359 18.161 15.5404C18.4162 15.3378 18.6338 15.3302 18.9115 15.4954C19.4219 15.7881 19.9548 16.0434 20.4577 16.3436C20.7954 16.5388 21.1257 16.5688 21.5009 16.4863C22.5667 16.2461 23.6325 16.0434 24.6983 15.7957C25.0435 15.7131 25.2687 15.7956 25.4413 16.0884C25.4863 16.1635 25.5539 16.2235 25.5914 16.2986C25.9367 16.9742 26.462 17.2744 27.2276 17.1844C27.6404 17.1318 27.9406 17.3345 28.1658 17.7023C28.4735 18.2053 28.8263 18.6782 29.1565 19.1661C29.2391 19.2862 29.4042 19.4063 29.3216 19.5715C29.2391 19.7366 29.0439 19.6841 28.8938 19.6916C27.6104 19.7291 26.3344 19.7291 25.051 19.7741C22.3791 19.8642 19.7146 19.8717 17.0502 19.9243C14.8811 19.9693 12.712 20.0293 10.4529 20.0819Z" fill="#CA8DFF"/>
<path fill-rule="evenodd" clip-rule="evenodd" d="M13.1923 5.23391C13.2148 5.57171 12.9671 5.62425 12.7195 5.65428C12.149 5.73685 11.6012 5.88695 11.0683 6.09714C10.3102 6.40491 9.82986 6.95289 9.6122 7.74108C9.45459 8.31158 9.31198 8.88211 9.25944 9.46762C9.23693 9.73035 9.16938 9.94053 8.83914 9.93303C8.52391 9.92552 8.49389 9.72282 8.46387 9.48261C8.41883 9.1373 8.35879 8.79952 8.29124 8.46172C8.01354 7.01296 7.12039 6.1497 5.72437 5.78188C5.4917 5.71432 5.25153 5.67681 5.01886 5.61675C4.83122 5.56421 4.58354 5.58671 4.59855 5.27143C4.61356 4.97868 4.71113 4.791 5.03387 4.73845C5.43166 4.6784 5.82194 4.58835 6.19721 4.49077C7.63076 4.10793 8.26872 3.31971 8.38131 1.83341C8.39632 1.66076 8.40382 1.48811 8.41883 1.31546C8.43384 1.08276 8.58395 0.992669 8.80161 0.977656C9.03428 0.955136 9.15437 1.06025 9.1919 1.28545C9.22192 1.48813 9.25194 1.69081 9.29697 1.90099C9.68726 3.80766 10.3628 4.43068 12.3142 4.6859C12.4868 4.70842 12.6519 4.75349 12.8245 4.76851C13.1173 4.79103 13.2073 4.97118 13.1923 5.23391Z" fill="#CA8DFF"/>
<path fill-rule="evenodd" clip-rule="evenodd" d="M8.9893 14.7672C9.04184 15.1501 8.77915 15.1876 8.53897 15.2176C7.8935 15.2927 7.29306 15.4879 6.70764 15.7506C6.09219 16.0359 5.6944 16.5088 5.47674 17.1468C5.2891 17.7248 5.16151 18.3178 5.07895 18.9108C5.04142 19.1736 5.05643 19.4964 4.63613 19.4889C4.20832 19.4889 4.26086 19.1736 4.23083 18.9033C4.20832 18.7006 4.1783 18.498 4.14827 18.2878C3.9081 16.5163 2.8048 15.593 1.13858 15.2326C1.01849 15.2101 0.905913 15.1801 0.785825 15.1576C0.568167 15.12 0.38053 15.06 0.388035 14.7822C0.395541 14.4895 0.523133 14.3468 0.815846 14.3018C1.20613 14.2342 1.59642 14.1592 1.97919 14.0541C3.48779 13.6262 4.07322 12.8906 4.20832 11.3217C4.22333 11.2016 4.23083 11.0815 4.22333 10.9614C4.22333 10.6837 4.36593 10.5561 4.63613 10.5335C4.91383 10.5185 4.97387 10.6911 5.0114 10.9238C5.06394 11.2842 5.13899 11.637 5.20654 11.9973C5.44672 13.1984 6.18225 13.904 7.38313 14.1292C7.79593 14.2042 8.20122 14.2868 8.61403 14.3319C8.90674 14.3619 8.98179 14.542 8.9893 14.7672Z" fill="#CA8DFF"/>
</svg>
