<svg xmlns="http://www.w3.org/2000/svg" viewBox="0 0 174.24 77.24"><defs><clipPath id="clip-path" transform="translate(-1 2.66)"><path class="cls-1" d="M170.6 12.42v56.11s-5-.38-13.57-.86c-17.95-1-72.29-2.5-109.29-1.93l-.67-2-1.52 2h-1L43.61 59l-1.91 6.9c-4.21.09-16.94.21-21.21.36-3.62.12-7.26.27-10.89.45l1.86-54.25q4.27.26 8.76.47C45.05 14 99.5 14 122.91 13.59l.71 4.41 1.38-4.44c10.61-.18 23.61-.42 30.78-.64 9.22-.27 14.82-.5 14.82-.5Z"/></clipPath><clipPath id="clip-path-2" transform="translate(-1 2.66)"><path class="cls-1" d="M170.6 9.22v56.11s-5-.38-13.57-.86c-17.95-1-72.29-2.5-109.29-1.93l-.67-2-1.52 2h-1l-.92-6.84-1.93 6.95c-4.21.1-16.94.21-21.21.37-3.62.12-7.26.27-10.89.45l1.86-54.25c2.85.17 5.77.33 8.76.46 24.83 1.15 79.28 1.09 102.69.71l.71 4.41 1.38-4.44c10.61-.18 23.61-.43 30.78-.64 9.22-.27 14.82-.5 14.82-.5Z"/></clipPath><style>.cls-1{fill:none}.cls-14,.cls-17,.cls-6,.cls-7{mix-blend-mode:multiply}.cls-4,.cls-5,.cls-6,.cls-7{fill:#3a2f1a}.cls-5{stroke:#3a2f1a}.cls-12,.cls-5{stroke-linecap:round;stroke-miterlimit:10}.cls-6{opacity:.32}.cls-14,.cls-7{opacity:.7}.cls-18{fill:#b4ab9e}.cls-12{stroke:#000}.cls-13{fill:#9c28ba}.cls-12,.cls-14{fill:#756956}.cls-17{opacity:.16}</style></defs><g style="isolation:isolate"><g id="Layer_1" data-name="Layer 1"><g style="mix-blend-mode:multiply;opacity:.35"><path class="cls-4" d="M173.79 8.16A14.74 14.74 0 0 0 169.07 7h-.85l-1.07 2.54-.78-2.41a9.49 9.49 0 0 0-5.56 2.87c.07.89.12 1.81.16 2.74l-5.19.16c-7.17.22-20.17.46-30.78.64L123.62 18l-.71-4.41c-23.41.41-77.86.41-102.69-.7l-4.49-.23c0-1.36.11-2.69.2-4a9.49 9.49 0 0 0-5.56-2.94L9.6 8.16 8.52 5.62a7.63 7.63 0 0 0-.84 0A14.31 14.31 0 0 0 3 6.83C4 29.7 3 71.19 3 71.19a28.09 28.09 0 0 0 8 1.3 8.9 8.9 0 0 0 5-1.3c.07-1.63.12-3.22.16-4.79l4.4-.18c4.27-.15 17-.27 21.21-.36L43.61 59l.92 6.84h1l1.52-2 .67 2c37-.57 91.34.91 109.29 1.93l3.63.21c0 1.52.09 3.06.15 4.64a8.9 8.9 0 0 0 5 1.3 28.09 28.09 0 0 0 8-1.3s-1.08-41.62 0-64.46Z" transform="translate(-1 2.66)"/><path class="cls-4" d="M172.68 9.31c.1-.67-.11-.33-.13-.41-.12 1.1.19.36.13.41Z" transform="translate(-1 2.66)"/><path class="cls-4" d="m171.67 24.01-.08-.22.18 1.86-.1-1.64z"/><path class="cls-4" d="M172.57 33.15c.36-1.11 0-4.27.1-6.38l.09-.34-.28-.95c.01 2.52.2 5.87.09 7.67ZM171.8 39.44c.14-.39.13 1.36 0-1.47v.27Z" transform="translate(-1 2.66)"/><path class="cls-4" d="M171.81 38.24c0-1.24-.12.81 0 0ZM171.92 44l-.14-1.64c-.08.34-.09 1.8-.15 1.26.08 1.66.16 1.31.29.38ZM172.19 45.53l-.06-.85a2.1 2.1 0 0 0 .06.85ZM172 42.88l.12 1.8c.06-.24.17-.26 0-.83.07.15-.03-.21-.12-.97ZM172.06 41.86c.07-.92.11-2.1.24-.46-.06-3.13-.3-2.67-.24.46ZM172.94 33.75l.11-1.22-.12-1.07c.07.54-.11 2.37.01 2.29ZM171.84 54.17c.07.1.19-.55.29-.67l-.1-1.21a10 10 0 0 1-.19 1.88ZM172.13 53.5l.15 1.8c-.01-1.61-.07-1.91-.15-1.8Z" transform="translate(-1 2.66)"/><path class="cls-4" d="m171.59 48.47-.3-2.97.31 3.54-.01-.57zM170.93 63.73l-.19-1.02.3 1.82-.11-.8z"/><path class="cls-4" d="M172.05 65.66c-.16-.76-.23 1-.33.24a29.78 29.78 0 0 0 .33 3.26 22.56 22.56 0 0 1 0-3.5ZM172.25 70.76c-.05-.5-.12-1-.2-1.6a14.27 14.27 0 0 0 .2 1.6ZM172.29 58.38a4.42 4.42 0 0 0-.19 1.43l.2-.72ZM172.3 59.07ZM172.29 58.2v.18a.23.23 0 0 0 0-.18ZM172.44 50.56c.13 1.06.29 3.27.44 1.12-.15-.76-.24.47-.44-1.12ZM172.54 57.32V55.4c-.05 0-.13.38-.2-.14Z" transform="translate(-1 2.66)"/><path class="cls-4" d="m171.62 60.91-.08-.94-.01.72.09.22z"/><path class="cls-4" d="M172.38 67.47c.11.83.13 1.74.17 2.76v-3.31c-.08-.16-.21-.63-.17.55ZM172.36 63.39v.18c.03-.11.03-.2 0-.18ZM166.15 72.63h.16Z" transform="translate(-1 2.66)"/><path class="cls-4" d="M172.58 66.73a9.39 9.39 0 0 0-.11-1.79c0 .62.06 1.27.08 2 .03.06.05.06.03-.21ZM172.45 71.46c.28 0 .61-.11.93-.19l-.9 1.29v-.41l-.05.41.92-1.31a3.94 3.94 0 0 0-.9.21ZM172.32 63.85v-.12c-.06.27-.03.27 0 .12ZM172.32 63.85c0 .43.1.76.15 1.09 0-.5-.06-1-.1-1.37a1.78 1.78 0 0 1-.05.28ZM163.09 73.7a4.89 4.89 0 0 1 1.47 0l2.74.09c1.83-.33.51-.8-1-1.12-.05 0-.06.23-1.84.2a12.68 12.68 0 0 0 2 .27c.74 0 1.22.08.45.22a7 7 0 0 1-2.07 0c-.33-.07-.52-.15-1.07-.29.46.19-.31.2-1.13 0s-1.67-.5-1.53-.21a7 7 0 0 0 2.12.65c.08.1-.73-.02-.14.19ZM169.72 72.34l.74-.16a12.19 12.19 0 0 1-2.58.12c-1.21.2-1.46.25-1.54.33a23.62 23.62 0 0 0 3.63-.36Z" transform="translate(-1 2.66)"/><path class="cls-4" d="M172.63 72.26a2.57 2.57 0 0 1 .09.29l.74-1c-.61.37-1.83.77-.83.72a9.21 9.21 0 0 0 1-.31l-.44.63c-.07-1.06-.19-.84-.29-1.93.14 3.7-.15-1.06-.2 1.62-.06-.73-.08-1.38-.11-2l-.05 1.92V72c0-.16 0-.22 0 0v.08a.54.54 0 0 1 .08.17v.29l.81-1.14c-.3.07-.19 0 0 0l-.83 1.18v-.46.49l.86-1.22a29.5 29.5 0 0 1-2.94.85 19.68 19.68 0 0 0 3-.75l-.78 1.12ZM173.37 53.65c0 .12 0 .11-.05.12.03.23.05.33.05-.12ZM173.26 55.18a6.35 6.35 0 0 1-.11-1.37c0-.76.1 0 .17 0-.06-.52-.17-1.84-.26-.19v.26a17.74 17.74 0 0 1-.32 3.16 7.45 7.45 0 0 0 .52-1.86ZM173 63.82l.17 3.08.15-1.57-.11.08c-.01-1.76-.14-1.41-.21-1.59ZM165.83 72.52l.37-.23a12.83 12.83 0 0 1-1.63.25 10.63 10.63 0 0 0 1.26-.02ZM162.39 72l.18-.14a6.46 6.46 0 0 1-.78-.25 4.43 4.43 0 0 0 .6.39ZM2.22 27.47l-.06-.9c.02.43.04.7.06.9ZM2.23 34l.09.17c-.05-.29-.09-.41-.09-.17ZM68.19 64.37c-1.32-.18-2.8-.47-2.64-.24l.41.21a19.46 19.46 0 0 1 2.23.03ZM16.09 68l.07-.39-.16-.9ZM17 69l-.19 1.74c.01-.44.07-1 .19-1.74ZM15 6a11.53 11.53 0 0 1 1.11.56c-1.54-1.14-.95-.5-1.11-.56ZM125.57 65.31c-1.13-.12-2-.18-2.83-.21a10.22 10.22 0 0 0 2.83.21ZM4.53 30c0-.55-.08-.79-.13-.77.04.61.08.93.13.77ZM119.45 65l.6.06h2.69a14.33 14.33 0 0 0-3.29-.06ZM132.3 12.17h.3s-.11-.01-.3 0ZM165.48 7.41l1.06.65a11.59 11.59 0 0 0-1.33.33c.24-.06.63-.18 1.33-.33l-1.06-.65ZM150.5 66c.85 0 .13 0 0 0ZM154.59 67c-.18 0-.32 0-.34.08a.71.71 0 0 1 .34-.08ZM111 66.17h-.07c.2.05.16.04.07 0ZM151.77 66.14c-.31 0-.68-.08-1.08-.11ZM151.61 66h.74c.11.05.01 0-.74 0ZM149.31 65.94c.49 0 .94 0 1.38.09h-.19ZM69.76 13.14h.19c.85-.06.48-.05-.19 0ZM46.26 64.49v.08-.12ZM45.5 67h.07l.76-.18.14-.28a9.44 9.44 0 0 1 1.37-2.14l-1.69-.28.11.4.12-.47 1.28.2-.65.26-.55 2v.1l-.86.36Z" transform="translate(-1 2.66)"/><path class="cls-4" d="M1.89 11.81 1.75 14c-.38-2.57-.35-4.43-.55-2.42.7.28.28 8.29 1 8.58L2 21.52v-.87c-.29 2.75.51 2 .46 5.57-.05 1.23-.15 2.09-.23 1.25l.18 2.75c0 .8-.13.6-.12-.19l.06 4.19c.11.59.27 2 .34 2.61-.1 1.06-.07-.53-.15-.26l.15 2.32c-.18.94-.34-1-.31-2.58-.68 2.16.16 1.92-.26 6.6L2 40.68c-.39 1.41-.27 3.12-.53 5.6.13-.59.65-5 .8-2.44a17 17 0 0 0 0 3c-.24 0-.19 1.33-.2 3l-.32-.11a15.19 15.19 0 0 0 .37 2.71 5.75 5.75 0 0 1-.53 2.88c-.1 3.2.43-2.21.44 1.58a67.19 67.19 0 0 0 .06 7.73C2 66.49 2 64.3 1.84 65l.22 1.66c0 .41-.09.27-.12.21.06 1.39.31.12.35 2.31a5.51 5.51 0 0 1 0 2l-.06.47.54.23a14.38 14.38 0 0 0 5.17 1.25c.67.17-.36.15-.17.3a21.87 21.87 0 0 0 3.55 0 11.11 11.11 0 0 0 3-.75 7.22 7.22 0 0 0 2.13-.82l.28-.17.05-.43.06-.53a2.86 2.86 0 0 1-.12.53l-.19.51h-.11c-.24.08-.24 0-.11-.16l.25-.3v-.1a24.89 24.89 0 0 1-.47-3.21c-.14.67-.26 1.25-.32 1.63l-.06-3.23v-.33h.55c.33 0 .19.11-.17.22l-.19.06v.11l.07.31v-.42h.45c1.22.07.6.28-.27.49l.3-.3-.24 1.19c.17.85.36 1.65.55 1.48 0-.22 0-.65-.05-1.12.05.22.09.36.13.26a5.26 5.26 0 0 0-.09-1l.38-.76-.95 1 .18-.15h4.47a104.08 104.08 0 0 1 11-1.22c-1.25.28-.26.43-.32.74-1.39-.3-3.92.21-6.55.18 1.37 0 1.07.17.73.23l4.67-.38c-.1.25 1 .17 2.23.25-.94-.48 3.48-.39 5.39-.57.12.16-.33.34-2.66.34 2.58.33 3.3-.64 5.83-.37a4.51 4.51 0 0 0-1.1.08c.43 0 1.06-.08 1.69-.09h.46l.1-.63c.35-1.27.78-2.51.74-2l-.15.55c.42-1.43 1-3.45 1.51-5.41l-1.59-.11c.46 3.1 1 6 1.27 6.33 0 0-.57-.42-.69-.64l.41 1.14.26.75.48-.11 1-.23.35-.08.06-.13 1.09-2.36 1 1.75c-.2-.17-.35.08-.51.3l.13.09c.13.18.22.37 0 .53L47.1 66a3.4 3.4 0 0 1-.8-1.39c.11.44.24.92.43 1.51l.24.72h.78c.63 0 1.39 0 2.34-.1-.61 0-1.53-.51-.7-.56 2.3.38 1.6.2 4.44.51-.92-.06.09-.65 1.54-.64-.22.08.13.56-.4.62l3.61-.58c-.91.11-.16.48.65.63-.38-.1 3.12 0 4.08-.06l-1.53-.13c4.08.08 4-.79 8.08-.76-.5.12-1.22.71.84.79A32.78 32.78 0 0 1 78.47 65l.68.17L81.9 65c-1.71.41-6.52 1.29-9.14 1.64a11.6 11.6 0 0 0 2.71.19c.8.16-1.25.23-1.92.24l5.32.13c-.24-.34 4.07-.3 3.87-.59l-5.78.3c-.24-.34 3.34-.93 7.12-.83 1 .14-.73.59-.65.7a26.2 26.2 0 0 1 3.93-.09l-1.61.15c2.1.16 3.44-.4 6 0 .87 0 2.6.46 2.75.27-1.41-.41-1.68-1.6-.72-1.87.3 0 4.56.44 5.55.64 1.43.33-2.16.68-.94 1a4.18 4.18 0 0 1 1.18-.22c.91.09-.39.28 1.6.27.34-.34 4 .1.94-.27 2-.06 2.07.11 4.35.13-.72-.23 2.06-.71 4-.76-.11.08.32.2.53.26 4 .12 6.12.32 9.84.42.34.09 2.13.24 1.36.36a15.65 15.65 0 0 1 2.17-.13c2.21.36-2.55 0-.87.38a32.35 32.35 0 0 1 4.6-.27c-.49-.32-3.76-.17-5.4-.08 0-.42 2.86-.79 6.75-.87 3.09 0 1.33.31 1.87.26 5.79.26 5-.58 9.76-.11 1.9.34.07.54.49.75-2.52 0-3.86-.31-5.56-.35l2.09.19a22.68 22.68 0 0 1-3.39 0c1.59.29 9.79.37 14.25.79.79-.06 2.17-.09 1.53-.23h-1.42c-1.29-.28 2.67-.18.89-.36a44.63 44.63 0 0 1 6.71 0l.49.33a10.06 10.06 0 0 0-2.5-.22c1.13-.08 4.08.64 5.32.31l-1.9-.46 2.64-.09h.78l.12.95a30.13 30.13 0 0 1 .26 4c.27-1.08-.05-.54.25-2.23-.17.66-.23-.5-.27-1.76v-1.09l-1.09-.07c-1.54-.08-3.24-.21-2 .12-1.7-.51-3-.34-5.22-.81.06.11.79.23-1.2.09a2.54 2.54 0 0 1-.44.07h-.14.11c-.08 0-.09 0 0 0a6.15 6.15 0 0 1 1 .2c-1 .19-4.16 0-5.23.12-1.18-.1.49-.1-.15-.23l-1.6.12c-.15-.24-3.12-.5-.34-.52l-2.5-.11a34.49 34.49 0 0 0-4.75-.25c-1.17-.09-3 .15-2 0h-3.93v-.06c-3.87-.15-8 .14-12.39-.38-1.31 0-2.66.06-4.84 0l-.42-.21c-1.67 0-5-.3-5.74-.11-1.8-.56-8.13-.28-11.07-.41l-.11.25c-2 0-4 0-6.49.06l.15.23c-2.17.16-5.58-.24-9-.24a7 7 0 0 1 1.72 0c-4.09-.55-8.65.29-12.36-.09a12.77 12.77 0 0 1-2.25 0h-.15l-1.29-.12c.39.06.76.1 1.08.12-.71 0-1.8 0-2.86.09l-.35-.3h-.25c-1-.09-.83.11-.28.29-.53 0-1 .09-1.4.15-.85-.39-2.79.13-4-.27-.71.21-5.34.17-5.9.61 0 0-.35-.08.22-.09a22.8 22.8 0 0 0-3.43.07l-.5-.3-2.58.44h-.16l.5.35c-.3-1.44-.37-2 .32-.64l-.64-1.47-.69-1.59-.85 1.34c-.66 1-1 1.43-1.41 2.12l.57-.3-1 .1.66.57-.27-1.06.21.13a28.47 28.47 0 0 1-.59-3.62 22.16 22.16 0 0 0-.15-2.3L44 55.14l-1.12 3.61c-.54 1.77-1.23 4.24-2 6.88l.78-.61c-3.31 0-6.89.09-9.78 0 1.29.57-3.07-.2-3.31.25-.39-.13-1.31-.19-.25-.33-3.35.19-5.05-.13-7.35.29-.39-.13.71-.22.37-.29a7.15 7.15 0 0 1-1.42.07c-.34-.06.49-.14 1-.2-3.43.14-3.76.59-4 1l-.91-.05h-.56l-.07.67a9.26 9.26 0 0 0 .09 3c-.15.6-.32 1.6-.3-.52l-.12 2.35.35-.65c-1.52 1.1-4.32 1.1-4.37 1.31-.36-.06-1.61 0-1.92 0a24.09 24.09 0 0 1-2.69-.4c-.7-.14-1.39-.28-2.64-.61l.68.24a3.49 3.49 0 0 1-1.43-.2l.28.4c0-.73.14-1.63.14-2.85v.06c.38-4.87-.09-2.11.32-6.91l-.24.25c-.51-.46.38-4.26.22-7l-.15 1c-.16-1.52.76-4.25.84-5.78 0-.34.07.53.09 1 .35-4-.3-.52-.34-3.51.17-.55.42.71.47-1.3.15-1-.5-5.84-.17-8.59-.13.61-.27 1.21-.36-.18 0-2.13.51-5.76.08-7.68 0-.27.07-.37.1-.38C4.29 27.64 4.19 24 4 23c.84-1.52-.58-10.11.16-10.09-.05-1.67-.14-3.34-.22-5L4 8V6.76l-.56.93c.9-.4 1.67-.65 2.24-.85s1-.35 1.46-.48c.71 0 .2.1.15.14h1.3L7.72 6c.42 1.08.74 1.87 1 2.56l1 2.27.72-2.35c.26-.83.45-1.54.66-2.44l-.87.53a10.09 10.09 0 0 1 2.18.39l.24.38a6.78 6.78 0 0 1 2.61 2L15 8.63c-.11 1.19-.23 2.57-.32 4l-.05 1 1 .06c1.25.07 2.53.12 3.73.1 0 0-.14.07-.51.09 5.17 0 12.34 1.15 14.25.28l3.45-.16c-4.4-.18.67-.37-1.14-.57 1.73 0 4.47.36 2.34.37h-.33c-.79.46 5.46.27 5.34.59 8.66.12 17.11.46 25.22.53l-.93-.38h2.83c.74.09 1 .29-1 .27a10.62 10.62 0 0 0 3.44-.24c4 .16-1.55.42-.33.43h1.64-.37a19.59 19.59 0 0 1 3.88-.28c1.54.08.79.23 1.4.24h4.49l-1.43-.29c1.58-.14 3.36 0 1.71-.31 2.42.52 13.3.17 14.79.31 2.21-.21 4.39-.22 7.1-.21-.67-.06-1.08-.38 1.26-.35-.85.67 4.27.25 6.17.72-1.69-.3 6.63-.15 4-.58 2 0 .12.25 1.6.4 1.49-.11 3.08-.14 4.74-.15l-.89-.74.62 4.43.56 4.05 1.32-3.92c.49-1.44 1-2.92 1.46-4.42l-1 .74 2.09-.06c.09-.09-.87-.2.36-.36l3 .38c1.13-.07 1-.53 3.11-.27-.3-.07-.74-.17 0-.21 9 .13 18.21-.41 27.37-.49h.84v-.88l-.07-2.75-.25.71a7.91 7.91 0 0 1 3.2-1.93c-1.3.41-.51 0 .5-.38-.67.18-.06-.21-.22-.28a8.65 8.65 0 0 1 1.51-.25l-.82-.51.61 2.47.58 2.34L168 9.85l.27-.53a8.57 8.57 0 0 1 .73-2.06l-.74.48c1.38 0 2.93.38 3.25.28a14 14 0 0 0-1.51-.24c1.46 0-.63-.78-1.82-1.1h-.09l-.16.19c-.26.32-.48.51-.56.4a9.1 9.1 0 0 1-.77 2l1 .05c-.2-.76-.38-1.6-.59-2.47l-.14-.56h-.68a7.28 7.28 0 0 0-4.69 2.21c-.74.48.5-.58.06-.38l-1.28 1.41-.22.24v.31c.06.62.09 1.4.11 2.39l-.07-.24v.57l.9-.8c-5.5.22-8.08 0-14.45.06l.5.22c-1.42 0-1.72-.07-2.39-.11-1.62.39 4-.06 2.51.36-1.89-.44-10 .2-11.29-.32-2.19 0 .64.26-1.54.3l-.58-.13-.55.2c-1.43 0-2.16-.17-2.22-.3.35 0 1-.05 1.36-.07-1.86-.14-5.23.17-5.87.12l2.1.05-3.54.12h-.8l-.23.74c-.45 1.45-.91 2.95-1.38 4.45l2.11.15c-.24-1.47-.49-2.95-.72-4.4l-.15-.92h-.93c-2.21.05-4.35.13-6.32.25l.43.11c-4.39.25-3.52-.09-8.35 0h.18a28.93 28.93 0 0 1-3.58.18c1.22-.14-2.3-.24-.7-.4a27.86 27.86 0 0 0-5.5.62l-.73-.18a17.34 17.34 0 0 1-3.58.32c2-.17-1.54-.28.68-.5-5.06-.39-7.52.43-9.84-.17-2.32.52 4.38.29 3.08.4 1.09.16-1.92.38-3.51.33s-2.75-.66-6.81-.65h.83c-1.52-.13-3 .17-4.85-.05-1 .31-2.42 0-2.72.37l3.73-.08a46.65 46.65 0 0 1-7.59.31 19.29 19.29 0 0 1 2-.23c-1-.12-2 .07-3-.06.3-.39 4.53-.06 6.8-.35-1.09-.17-4.29.26-3.15-.16-1.64.54-4-.09-6.76.31l.18-.24a20.85 20.85 0 0 1-2.14.13l1.45-.3c-2.23.25-4.29-.26-6.43-.14 4.48 0 1 .3 2.89.49-5.52.27-3.17-.65-9.35-.61.84 0 3.14.18 1.83.28-1.18-.06-2.73-.18-3.45-.31-4.1 0 .63.25-1.12.37-1.39-.31-2 .09-3.81.16v-.25c-4.66-.24-1.24.48-5.44.22l1.78-.3h-2.19l.46-.26a33.11 33.11 0 0 1-5.46-.06c.54.19-.32.44-2.38.39-1.41-.19.79-.2-2.14-.26a5.83 5.83 0 0 1 2.66 0c.14-.07.66-.13.8-.21-1.52-.2-3.81-.15-4.87-.18.41 0 .89 0 1.14.09l-4.25.19c-.66-.11-.13-.17.39-.22-.85 0-1.45.08-2.72.05.34-.18.27-.39 2.06-.41l-4.05.05c-.26-.1-2.06-.34-1.53-.38a19.82 19.82 0 0 0-2.13-.09l1.5 1.64v-4.6l-.38-.37A17.08 17.08 0 0 0 14.87 6c-.17-.06-.48-.24-1.14-.53a11.53 11.53 0 0 0-3.15-1.08L9.49 4.2l-.41 1.14c-.28.77-.56 1.56-.83 2.39l2.65-.11c-.34-.8-.72-1.63-1.16-2.51l-.46-.89-.76.08h-.4A14.72 14.72 0 0 0 6 4.21c-1.41.33-.68.29-.21.32.23 0 .41 0 .24.13s-.68.2-1.78.56-1.55.57-1.8.62l-.38.07-.25 1c-.08.35-.3-.19-.33.51A29.31 29.31 0 0 1 2 14.33c-.09-.93-.06-1.66-.11-2.52Zm.4 32a10.09 10.09 0 0 1 0-2.31 4.73 4.73 0 0 1 0 2.28Zm16.94 23a8.19 8.19 0 0 1-2 0 15.76 15.76 0 0 1 2-.03Zm121.94-1h-.06c-1.38-.13-.89-.07.06 0Zm2.88.21c.29 0 .27 0 .15-.09a9.13 9.13 0 0 1-1.59 0 4.53 4.53 0 0 0 1.44.07ZM78.83 14.8l-.55-.07c1.26-.06.9 0 .55.07Z" transform="translate(-1 2.66)"/><path class="cls-4" d="M16.85 68.82a.4.4 0 0 1-.14.26c.04.25.08.25.14-.26ZM14.78 6l.09.06h.12ZM99.48 66.9a7.36 7.36 0 0 1-1.14-.14c-.04.06.23.11 1.14.14ZM159.31 66.32h-1.85a11.59 11.59 0 0 1 1.66.18c-.04-.1-.39-.2.19-.18ZM170.44 73.38c.26-.08.56-.12.81-.2l-.1-.09c-1.15.24-1.89.45-.71.29ZM161.34 68.12a7 7 0 0 0 0 2.59v-.22c.27.37.13-1 0-2.37ZM161.34 71v1.19c.16.16.05-.47 0-1.19ZM147.7 66c.61.08.39-.24.74-.15.69-.2-4.1.15-.74.15Z" transform="translate(-1 2.66)"/><path class="cls-4" d="m159.7 71.84.24-.47-.23-.71-.01 1.18z"/><path class="cls-4" d="m151.81 67.22 2.05.17s.24-.06.56-.06a20.66 20.66 0 0 0-2.61-.11Z" transform="translate(-1 2.66)"/><path class="cls-4" d="M154.42 67.33a14.35 14.35 0 0 0 1.66 0c-.36.03-1.08 0-1.66 0Z" transform="translate(-1 2.66)"/><path class="cls-4" d="m158.15 70.52-.61-.09-1.45-.1 2.06.19z"/><path class="cls-4" d="M129.66 66.38h-2.25c-.23.08.38.15 1.22.14.54-.04 1.37-.05 1.03-.14ZM136.44 67.27a4.13 4.13 0 0 1-1-.22l-.08.31ZM129.88 67.14c-.22.08-3.27.16-.42.22.23-.08 2.54-.09.42-.22Z" transform="translate(-1 2.66)"/><path class="cls-4" d="m95.01 68.65.57.01-.07-.51-.5.5z"/><path class="cls-4" d="M66.14 67c2.67.12.64-.31 3-.16.63-.12-2-.13-1.32-.23-1.57.1-2.42.02-1.68.39ZM67.86 66.58l.82-.08c-.47.03-.68.06-.82.08ZM169.13 8.22a13 13 0 0 1 1.53.33c-.32-.12-.64-.24-1-.33ZM172.2 8.46l.25.43h.94c.05 0-.07 0-.15-.11a.78.78 0 0 1-.2-.24.77.77 0 0 0 .24.27.41.41 0 0 0 .12.07h-.07l-.15-.06-.35-.13a3.48 3.48 0 0 1-.63-.23ZM1.59 48.53l.08.14a6 6 0 0 0 .12-1.47Z" transform="translate(-1 2.66)"/><path class="cls-4" d="M.89 27.98v.4l.28-.75-.28.35z"/><path class="cls-4" d="M3.28 4.68a9.28 9.28 0 0 0-1.14.47L1 5.7l.08 1.22c0 .51.08 1 .09 1.49a12.5 12.5 0 0 1 0-1.49l.07-1.35.94-.35c.94-.35 1.31-.35 1.1-.54ZM173.79 8.16A14.74 14.74 0 0 0 169.07 7h-.85l-1.07 2.54-.78-2.41a9.49 9.49 0 0 0-5.56 2.87c.07.89.12 1.81.16 2.74l-5.19.16c-7.17.22-20.17.46-30.78.64L123.62 18l-.71-4.41c-23.41.41-77.86.41-102.69-.7l-4.49-.23c0-1.36.11-2.69.2-4a9.49 9.49 0 0 0-5.56-2.94L9.6 8.16 8.52 5.62a7.63 7.63 0 0 0-.84 0A14.31 14.31 0 0 0 3 6.83C4 29.7 3 71.19 3 71.19a28.09 28.09 0 0 0 8 1.3 8.9 8.9 0 0 0 5-1.3c.07-1.63.12-3.22.16-4.79l4.4-.18c4.27-.15 17-.27 21.21-.36L43.61 59l.92 6.84h1l1.52-2 .67 2c37-.57 91.34.91 109.29 1.93l3.63.21c0 1.52.09 3.06.15 4.64a8.9 8.9 0 0 0 5 1.3 28.09 28.09 0 0 0 8-1.3s-1.08-41.62 0-64.46Z" transform="translate(-1 2.66)"/><path class="cls-4" d="M175 7.49a15.76 15.76 0 0 0-6.16-1.31 2.27 2.27 0 0 0-2 1l-1.14 2.51 2.89-.58-.77-2.42c-.14-.43-.9-.41-1.24-.35a13 13 0 0 0-5.09 1.95 6.28 6.28 0 0 0-2 1.74c-.39.75 0 2.27.06 3.12l2-1.16c-12 .4-24 .6-36 .8-.6 0-1.8.26-2 1l-1.39 4.44 2.9-.58-.71-4.41c0-.34-.63-.39-.87-.38-13.12.2-26.24.25-39.35.24-15.27 0-30.54-.09-45.81-.41-7.35-.15-14.69-.38-22-.77l.87.57q.06-1.77.18-3.54C17.41 8 16.79 7.59 16 7a10.82 10.82 0 0 0-4.77-2c-.69-.12-2.09.15-2.34.94l-.74 2.42L11 7.78l-1-2.55c-.13-.33-.55-.39-.87-.38A17.07 17.07 0 0 0 2.39 6.3c-.38.18-.91.43-.89.92.91 19.56.5 39.22.13 58.78 0 1.8-.08 3.7-.13 5.38a.42.42 0 0 0 .29.47 26.36 26.36 0 0 0 9 1.39A12.3 12.3 0 0 0 16.17 72c1-.54 1.2-.82 1.24-1.94s.09-2.54.12-3.82l-2 1c8.53-.36 17.07-.36 25.61-.55.59 0 1.83-.26 2-1l1.92-6.9-2.89.59.91 6.84c0 .33.63.38.87.37 1.21 0 2.32 0 3.13-1 .46-.57.89-1.18 1.33-1.78l-2.79.39.67 2c.11.33.58.39.87.38 16.45-.25 32.91-.12 49.36.14q22.61.34 45.19 1.14c6.13.22 12.25.49 18.37.85l-.87-.38c0 1.08.06 2.16.1 3.24s-.09 1.53 1 2.08a11.31 11.31 0 0 0 5.17 1 28 28 0 0 0 8.5-1.41c.48-.15 1.29-.42 1.27-1.05-.4-15.61-.59-31.24-.44-46.86.06-5.77.17-11.54.44-17.3 0-1.1-2.85-.5-2.89.39-.92 19.69-.54 39.47-.13 59.17 0 1.79.08 3.58.13 5.38l1.27-1a23.94 23.94 0 0 1-6.1 1.17 8.93 8.93 0 0 1-4.55-.62c-1.28-.69-.83-3.61-.86-4.92 0-.35-.67-.37-.87-.38-12.15-.73-24.31-1.1-36.48-1.42Q100 65 75.28 64.87c-9-.05-18 0-27 .11l.88.38-.67-2c-.32-1-2.41-.12-2.79.39l-1.53 2 1.95-.75h-1l.87.38-.91-6.84c-.13-1-2.7-.11-2.89.59l-1.91 6.89 2-1c-8.54.18-17.08.19-25.61.54-.43 0-2 .27-2 1 0 1.6-.09 3.19-.15 4.79l.56-.57c-2 1.3-4.72 1-7 .62a25.81 25.81 0 0 1-4-.92l.28.47C4.8 55.2 5 39.4 4.83 23.6c-.06-5.72-.17-11.44-.43-17.16l-.9.93A11.18 11.18 0 0 1 8 6.39L7.08 6l1.07 2.55c.39.93 2.65.17 2.89-.58l.78-2.41-2.35.94a8.69 8.69 0 0 1 4 1.75 1.83 1.83 0 0 1 .9 1.93c-.05.9-.08 1.79-.12 2.68 0 .49.47.55.87.57 13.76.73 27.55.91 41.33 1.05q23 .21 45.9.08c6.65 0 13.3-.09 20-.2l-.87-.38.71 4.41c.15 1 2.68.09 2.89-.58l1.39-4.45-2 1c12-.2 24-.39 36-.79.61 0 2.07-.3 2-1.16 0-.6-.13-1.23-.1-1.84 0-.8.41-1.11 1.07-1.57a6.77 6.77 0 0 1 2.77-1.14l-1.24-.35.78 2.41c.32 1 2.61.08 2.89-.58l1.07-2.55-2 1a12.6 12.6 0 0 1 5 1.11c.71.31 3.38-.9 2.29-1.41Z" transform="translate(-1 2.66)"/><path class="cls-5" d="M170.6 12.42v56.11s-5-.38-13.57-.86c-17.95-1-72.29-2.5-109.29-1.93l-.67-2-1.52 2h-1L43.61 59l-1.91 6.9c-4.21.09-16.94.21-21.21.36-3.62.12-7.26.27-10.89.45l1.86-54.25q4.27.26 8.76.47C45.05 14 99.5 14 122.91 13.59l.71 4.41 1.38-4.44c10.61-.18 23.61-.42 30.78-.64 9.22-.27 14.82-.5 14.82-.5Z" transform="translate(-1 2.66)"/><path class="cls-6" d="M170.6 12.42v56.11s-5-.38-13.57-.86c2.06-14 4.1-37.06-1.25-54.75 9.22-.27 14.82-.5 14.82-.5ZM20.49 66.22c-3.62.12-7.26.27-10.89.45l1.86-54.25q4.27.26 8.76.47c-4.87 17.37-3.01 42.39.27 53.33Z" transform="translate(-1 2.66)"/><path class="cls-5" d="M15.93 71.19a8.9 8.9 0 0 1-5 1.3 28.09 28.09 0 0 1-8-1.3S4 29.7 3 6.83a14.31 14.31 0 0 1 4.68-1.17 7.63 7.63 0 0 1 .84 0l1.08 2.5.77-2.41a9.49 9.49 0 0 1 5.56 2.94c-1.08 14.37 1.07 34.31 0 62.5Z" transform="translate(-1 2.66)"/><path class="cls-4" d="M15.41 71.38c1.08-28.19-1.08-48.14 0-62.5a7 7 0 0 0-4.72-2.58l-.2.63a5.28 5.28 0 0 1 3.72 2c-1.08 14.31 2.28 34.26 1.2 62.45ZM8.17 6.13h-.84l-.53.06c.31.06.8.18 1.58.4Z" transform="translate(-1 2.66)"/><path class="cls-7" d="M10.92 72.49a28.09 28.09 0 0 1-8-1.3S4 29.7 3 6.83a14.31 14.31 0 0 1 4.68-1.17C3.82 13 6.88 26.83 6.41 35.29c-.52 9.34-2.56 25.78 4.51 37.2Z" transform="translate(-1 2.66)"/><path class="cls-5" d="M160.81 72.52a8.9 8.9 0 0 0 5 1.3 28.09 28.09 0 0 0 8-1.3s-1.08-41.49 0-64.36A14.44 14.44 0 0 0 169.07 7h-.85l-1.07 2.54-.78-2.41a9.49 9.49 0 0 0-5.56 2.87c1.08 14.39-1.08 34.33 0 62.52Z" transform="translate(-1 2.66)"/><path class="cls-4" d="M167.19 72.53a9 9 0 0 1-5-1.3c-.54-14.21-.66-26.45-.79-36.94-.28 10.64-.61 23.14 0 37.94a8.92 8.92 0 0 0 5 1.3 24.75 24.75 0 0 0 6.89-1.38c-1.86.01-4.15.4-6.1.38Z" transform="translate(-1 2.66)"/><path class="cls-7" d="M165.82 73.82a28.09 28.09 0 0 0 8-1.3s-1.08-41.49 0-64.36A14.44 14.44 0 0 0 169.07 7c3.85 7.34.79 21.18 1.27 29.64.51 9.36 2.56 25.76-4.52 37.18Z" transform="translate(-1 2.66)"/><g style="clip-path:url(#clip-path)"><path class="cls-4" d="M20.48 41c-.57 1 .18 1.86.87 2.72.26-.82.51-2.88-1-2.72M30.25 51.78c-.54.3-1 .75-1.5 1.1a11.56 11.56 0 0 0 1.09 1.3c.45-.26.83-.69 1.31-.93a.86.86 0 0 0-.26-.14 2.57 2.57 0 0 1-.16-.54 2.52 2.52 0 0 1 1.17-.51c.15-.75-.28-1.49-.3-2.23-.58 0-1.94-.28-2.3.27-.52.82.91 1.22.8 2M26.24 43.42v1.79a1.23 1.23 0 0 0 .71 0c.14-.58 0-1.66-.58-1.94M38.63 58.51v1.79a1.26 1.26 0 0 0 .72 0c.13-.58 0-1.66-.59-1.94M17.25 55.4a18 18 0 0 0 0 1.8 1.23 1.23 0 0 0 .71 0c.13-.58 0-1.66-.59-2" transform="translate(-1 2.66)"/><path class="cls-4" d="M29 58.72c.59-.41 1.23-1 1-1.51s-2.1-1.15-2.65-1.52a4 4 0 0 0-1.61-.86c-.77-.14-1.74.25-2.59.17v-1.39c0-.39-.43-.47-.21-1 .34-.76 1.67-.43 2.36-.48-.33-1.4.55-5.46-2.18-4.79.08 1 1 2.15 1 3.17a18.3 18.3 0 0 1-2.77 0c-1.15-.1-.78.14-1.38-1-.28-.5-1.16-2.4-1.69-2.45s-1.23 1-1.2 1.44l-.41.81c0 .09.73.63.84 1a9.46 9.46 0 0 1-.38 1.33c-.65-.25-1.34-.83-2.05-.71a12.7 12.7 0 0 1 .42 4c.58-.34 1.14-.89 1.74-1.17.62.7 1.13 1.46 1.71 2.2.82 1.05.68.61 1.93.22 0 1 1.16 4.44 2.24 4.1-.1.59-.72 1.35-1.4 1.15-.91-.28-.4-1.21-.76-1.84-.55-1-2.73-.16-2.89-1.32.06 1 .81 1.62.62 2.53-.16.72-.65.88-.41 1.62.1.32.7.81 1 1.06 1.09 1.07 2 2.22 3.49 2.38s2.84-.11 4.22 0c0 .65.16 1.59 1 1.35.34-1.59-1.4-3-.79-4.63.56-1.46 1.93-.6 3-.21 0-.57.49-.72 1-.62.17-1.26-1.55-2.01-2.2-3.03Zm-4.13 1.08c-.68-.15-.75-1.64-.75-2.14h.15a.39.39 0 0 0 0 .28 2.87 2.87 0 0 1 1.16.94c.18.36.11 1.12-.56.92Z" transform="translate(-1 2.66)"/><path class="cls-4" d="M18 58.36a2.1 2.1 0 0 1 0-.43 1.29 1.29 0 0 0 0 .43ZM33.67 61.3a3.47 3.47 0 0 1 2.44 2.55c1.16.1 2.3-.26 3.46-.12.52.05 2 .77 1.8-.29-.65.33-1.71-.43-2.13-1.06a2.29 2.29 0 0 1-1.46.41 4.06 4.06 0 0 0-.5-1.77l-1-.05c-.17-.81.61-1.58.44-2.4-.12-.63-1.17-1.71-1.8-1.64a11.73 11.73 0 0 0 .31 3.74h.25a.94.94 0 0 1 0 .55c-.45.31-.92.09-1.34-.14-.12 0-.16.06-.15.17ZM32.48 63.55a1.42 1.42 0 0 0 .71 0c.51-1.83-1.35-.22-.71 0ZM54.92.55c-.64 1.17.21 2.11 1 3.09.29-.93.58-3.27-1.16-3.09M66 12.79c-.62.34-1.11.86-1.7 1.24a11.09 11.09 0 0 0 1.23 1.48c.51-.29.95-.78 1.49-1a1 1 0 0 0-.3-.15 3.62 3.62 0 0 1-.18-.62 2.87 2.87 0 0 1 1.33-.59c.17-.84-.32-1.68-.35-2.52-.66-.06-2.19-.32-2.6.31-.6.93 1 1.38.91 2.24M61.46 3.31v2a1.59 1.59 0 0 0 .81 0c.15-.66 0-1.88-.66-2.21M75.51 20.42a19.79 19.79 0 0 0 0 2 1.55 1.55 0 0 0 .8 0c.15-.66 0-1.89-.66-2.21M51.26 16.9v2a1.59 1.59 0 0 0 .81 0c.15-.66 0-1.89-.66-2.21" transform="translate(-1 2.66)"/><path class="cls-4" d="M64.57 20.66c.67-.46 1.39-1.08 1.14-1.71s-2.38-1.31-3-1.72a4.67 4.67 0 0 0-1.83-1c-.88-.15-2 .29-2.94.2v-1.58c0-.5-.5-.54-.25-1.09.4-.85 1.9-.48 2.68-.54-.37-1.56.63-6.17-2.44-5.41C58 9 59.11 10.25 59 11.41a20.57 20.57 0 0 1-3.14 0c-1.3-.11-.88.16-1.57-1.13C54 9.73 53 7.58 52.4 7.52S51 8.64 51 9.15l-.46.92c0 .1.82.71 1 1.15a13.42 13.42 0 0 1-.42 1.51c-.75-.29-1.53-.93-2.34-.79a14.21 14.21 0 0 1 .48 4.52c.66-.38 1.3-1 2-1.32.71.8 1.28 1.65 1.94 2.49.94 1.19.77.7 2.2.25 0 1.09 1.31 5 2.53 4.65-.11.67-.81 1.53-1.59 1.3-1-.3-.44-1.36-.85-2.08-.62-1.11-3.1-.17-3.28-1.5.07 1.14.92 1.85.7 2.87-.18.82-.73 1-.46 1.84.11.37.79.92 1.08 1.21 1.24 1.2 2.26 2.51 4 2.69s3.21-.13 4.78 0c0 .75.18 1.8 1.14 1.54.39-1.8-1.58-3.41-.89-5.25.63-1.66 2.19-.69 3.41-.24 0-.65.56-.81 1.15-.7.15-1.54-1.8-2.4-2.55-3.55Zm-4.67 1.22c-.76-.17-.85-1.85-.85-2.42h.17a.44.44 0 0 0 0 .32 3.16 3.16 0 0 1 1.31 1.07c.21.41.13 1.21-.63 1.03Z" transform="translate(-1 2.66)"/><path class="cls-4" d="M52.16 20.25a2 2 0 0 1 0-.49 1.39 1.39 0 0 0 0 .49ZM69.88 23.59c1.11 0 2.69 1.8 2.77 2.89 1.32.11 2.61-.29 3.93-.14.58.06 2.27.87 2-.32-.73.37-1.93-.5-2.41-1.21a2.6 2.6 0 0 1-1.65.47 4.58 4.58 0 0 0-.58-2l-1.14-.05c-.2-.92.68-1.8.49-2.73-.14-.71-1.33-1.94-2-1.86a13.08 13.08 0 0 0 .35 4.24l.28.06a1 1 0 0 1 0 .63 1.39 1.39 0 0 1-1.52-.17c-.13 0-.18.07-.17.2ZM68.53 26.14a1.59 1.59 0 0 0 .81 0c.58-2.08-1.53-.25-.81 0ZM37.29 25c-.67.46-1.39 1.08-1.15 1.71s2.38 1.31 3 1.72a4.42 4.42 0 0 0 1.82 1c.89.16 2-.28 2.94-.19v1.58c0 .5.49.54.24 1.08-.39.86-1.9.48-2.67.55.36 1.58-.63 6.19 2.46 5.43-.09-1.18-1.17-2.44-1.08-3.6 1.38-.11 1.36.07 2-.91a17 17 0 0 1 1-2.41c1.77 0 .23 2.46-.06 3.16 1 0 1.26.39 1.73 1.27.31.57 1.3 2.72 1.91 2.78s1.39-1.12 1.37-1.63l.45-.92c0-.1-.82-.71-.94-1.16a10.44 10.44 0 0 1 .42-1.5c.74.28 1.53.93 2.33.79a14.5 14.5 0 0 1-.48-4.52c-.65.38-1.29 1-2 1.32-.71-.8-1.28-1.66-1.94-2.5-.93-1.18-.77-.69-2.2-.24 0-1.09-1.3-5-2.53-4.65.11-.67.82-1.53 1.59-1.3 1 .3.45 1.36.85 2.08.63 1.11 3.11.17 3.29 1.5-.13-.94-.83-1.8-.74-2.76.09-.8.75-1.25.67-2.09-.38-3.56-3.75-.74-5.34 0a4.59 4.59 0 0 1-.55-.78c1.72-1.11 1-2.29-.26-3.29a20.86 20.86 0 0 1-3.86.28c.06-.75-.18-1.81-1.13-1.54-.4 1.8 1.57 3.41.88 5.25-.63 1.66-2.19.69-3.4.24 0 .65-.56.81-1.15.7-.18 1.55 1.78 2.39 2.53 3.55ZM42 23.77c.77.18.85 1.86.86 2.43h-.18a.4.4 0 0 0 0-.32 3.29 3.29 0 0 1-1.31-1.07c-.25-.41-.17-1.2.63-1.04Z" transform="translate(-1 2.66)"/><path class="cls-4" d="M49.7 25.41a2.75 2.75 0 0 1 0 .49 2.12 2.12 0 0 0 0-.49ZM171.8 35.71c-1.25-.69-2.26.22-3.3 1.06 1 .31 3.5.61 3.3-1.24M158.7 47.59c-.37-.67-.92-1.2-1.34-1.83a13.48 13.48 0 0 0-1.58 1.32c.31.54.83 1 1.13 1.6a1.12 1.12 0 0 0 .16-.33 3.08 3.08 0 0 1 .66-.18 3 3 0 0 1 .63 1.41c.91.19 1.8-.33 2.7-.36.06-.71.34-2.35-.33-2.79-1-.64-1.48 1.1-2.4 1M168.85 42.71h-2.18a1.61 1.61 0 0 0 0 .87c.71.16 2 0 2.37-.71M150.52 57.76h-2.18a1.57 1.57 0 0 0 0 .86c.71.16 2 0 2.36-.71M154.29 31.79h-2.18a1.57 1.57 0 0 0 0 .86c.71.16 2 0 2.36-.7" transform="translate(-1 2.66)"/><path class="cls-4" d="M150.27 46c.48.72 1.15 1.49 1.83 1.23s1.4-2.55 1.84-3.22a4.78 4.78 0 0 0 1-2c.17-.94-.3-2.11-.2-3.15h1.69c.39 0 .57-.53 1.16-.26.92.42.51 2 .58 2.86 1.7-.39 6.63.68 5.82-2.63-1.27.09-2.61 1.25-3.86 1.16a22.29 22.29 0 0 1 0-3.37c.12-1.39-.17-.94 1.21-1.68.61-.33 2.92-1.4 3-2s-1.2-1.49-1.75-1.46l-1-.49c-.11 0-.77.88-1.24 1a12.44 12.44 0 0 1-1.61-.45c.3-.79 1-1.64.85-2.5a15.1 15.1 0 0 1-4.85.52c.41.69 1.07 1.38 1.42 2.11-.86.75-1.78 1.37-2.67 2.07-1.27 1-.75.83-.27 2.36-1.17 0-5.39 1.4-5 2.71-.71-.11-1.64-.87-1.39-1.7.32-1.1 1.46-.48 2.23-.92 1.18-.66.18-3.32 1.6-3.51-1.22.07-2 1-3.07.75-.88-.19-1.07-.79-2-.5-.39.12-1 .85-1.29 1.17-1.29 1.32-2.7 2.42-2.89 4.24s.14 3.44 0 5.13c-.8-.06-1.93.19-1.65 1.22 1.93.42 3.65-1.7 5.62-.95 1.78.67.74 2.34.26 3.64.7 0 .87.6.75 1.24 1.72.32 2.61-1.77 3.88-2.62ZM149 41c.19-.82 2-.9 2.6-.91v.18a.45.45 0 0 0-.34 0 3.53 3.53 0 0 1-1.15 1.4c-.49.27-1.34.19-1.11-.67Z" transform="translate(-1 2.66)"/><path class="cls-4" d="M150.7 32.75a2.4 2.4 0 0 1 .53 0 1.62 1.62 0 0 0-.53 0ZM147.13 51.73c0 1.19-1.94 2.88-3.1 3-.12 1.41.31 2.79.15 4.21-.07.62-.94 2.42.35 2.18-.41-.79.53-2.08 1.29-2.59a2.78 2.78 0 0 1-.5-1.77 4.93 4.93 0 0 0 2.15-.61c0-.4 0-.83.06-1.23 1-.21 1.93.73 2.91.53.77-.15 2.08-1.43 2-2.19a14.38 14.38 0 0 0-4.54.37c0 .1 0 .21-.07.31a1.18 1.18 0 0 1-.67 0 1.48 1.48 0 0 1 .18-1.63c0-.14-.07-.2-.21-.18ZM144.4 50.28a1.61 1.61 0 0 0 0 .87c2.22.62.26-1.64 0-.87Z" transform="translate(-1 2.66)"/></g></g><path d="M173.79 5a14.44 14.44 0 0 0-4.72-1.18h-.85l-1.07 2.54-.78-2.41a9.44 9.44 0 0 0-5.56 2.94c.07.89.12 1.81.16 2.74l-5.19.16c-7.17.21-20.17.46-30.78.64l-1.38 4.44-.71-4.41c-23.41.38-77.86.44-102.69-.71l-4.49-.22c0-1.36.11-2.69.2-4a9.44 9.44 0 0 0-5.56-2.94L9.6 5 8.52 2.42h-.84A14.46 14.46 0 0 0 3 3.63C4 26.5 3 68 3 68a28.09 28.09 0 0 0 8 1.3 8.9 8.9 0 0 0 5-1.3c.07-1.63.12-3.22.16-4.79l4.4-.18c4.27-.16 17-.27 21.21-.37l1.91-6.89.92 6.84h1l1.52-2 .67 2c37-.57 91.34.91 109.29 1.93l3.63.21c0 1.52.09 3.06.15 4.64a8.9 8.9 0 0 0 5 1.3 28.09 28.09 0 0 0 8-1.3s-1.15-41.56-.07-64.39Z" transform="translate(-1 2.66)"/><path d="M172.68 6.11c.1-.67-.11-.33-.13-.41-.12 1.06.19.36.13.41Z" transform="translate(-1 2.66)"/><path d="m171.67 20.81-.08-.22.18 1.86-.1-1.64z"/><path d="M172.57 30c.36-1.12 0-4.28.1-6.38l.09-.34-.28-.95c.01 2.5.2 5.82.09 7.67ZM171.8 36.24c.14-.39.13 1.36 0-1.47v.27Z" transform="translate(-1 2.66)"/><path d="M171.81 35c0-1.25-.12.81 0 0ZM171.92 40.78l-.14-1.64c-.08.34-.09 1.8-.15 1.26.08 1.68.16 1.33.29.38ZM172.19 42.32l-.06-.84a2 2 0 0 0 .06.84ZM172 39.68l.12 1.8c.06-.24.17-.27 0-.83.07.15-.03-.21-.12-.97ZM172.06 38.66c.07-.92.11-2.1.24-.46-.06-3.13-.3-2.67-.24.46ZM172.94 30.55l.11-1.23-.12-1.06c.07.53-.11 2.37.01 2.29ZM171.84 51c.07.1.19-.55.29-.68l-.1-1.2a10 10 0 0 1-.19 1.88ZM172.13 50.29l.15 1.81c-.01-1.61-.07-1.91-.15-1.81Z" transform="translate(-1 2.66)"/><path d="m171.59 45.27-.3-2.97.31 3.54-.01-.57zM170.93 60.53l-.19-1.02.3 1.82-.11-.8z"/><path d="M172.05 62.46c-.16-.76-.23 1-.33.24a29.78 29.78 0 0 0 .33 3.26 22.56 22.56 0 0 1 0-3.5ZM172.25 67.56c-.05-.5-.12-1-.2-1.6a14.27 14.27 0 0 0 .2 1.6ZM172.29 55.18a4.42 4.42 0 0 0-.19 1.43l.2-.72ZM172.3 55.87ZM172.29 55v.18a.23.23 0 0 0 0-.18ZM172.44 47.35c.13 1.07.29 3.28.44 1.13-.15-.76-.24.52-.44-1.13ZM172.54 54.11v-1.92c-.05 0-.13.39-.2-.13Z" transform="translate(-1 2.66)"/><path d="m171.62 57.71-.08-.94-.01.71.09.23z"/><path d="M172.38 64.27c.11.83.13 1.73.17 2.76v-3.32c-.08-.15-.21-.62-.17.56ZM172.36 60.19v.18c.03-.11.03-.2 0-.18ZM166.15 69.43h.16Z" transform="translate(-1 2.66)"/><path d="M172.58 63.53a9.39 9.39 0 0 0-.11-1.79c0 .62.06 1.27.08 2 .03.04.05.05.03-.21ZM172.45 68.26l.93-.19-.9 1.28v-.41l-.05.41.92-1.3a3.48 3.48 0 0 0-.9.21ZM172.32 60.65v-.12c-.06.27-.03.23 0 .12ZM172.32 60.65c0 .42.1.76.15 1.09 0-.5-.06-1-.1-1.37a1.78 1.78 0 0 1-.05.28ZM163.09 70.49a5.76 5.76 0 0 1 1.47 0l2.74.1c1.83-.33.51-.8-1-1.13-.05.06-.06.24-1.84.21a11.82 11.82 0 0 0 2 .26c.74 0 1.22.09.45.23a7 7 0 0 1-2.07 0c-.33-.07-.52-.15-1.07-.29.46.19-.31.2-1.13 0s-1.67-.51-1.53-.21a7 7 0 0 0 2.12.65c.08.1-.73-.02-.14.18ZM169.72 69.14l.74-.16a12.19 12.19 0 0 1-2.58.12c-1.21.2-1.46.25-1.54.33a23.62 23.62 0 0 0 3.63-.36Z" transform="translate(-1 2.66)"/><path d="M172.63 69.06a2 2 0 0 1 .09.29l.74-1c-.61.37-1.83.77-.83.72a9.21 9.21 0 0 0 1-.31l-.44.63c-.07-1.06-.19-.84-.29-1.93.14 3.7-.15-1.06-.2 1.62-.06-.73-.08-1.38-.11-2l-.05 1.91v-.1c0-.16 0-.22 0 0v.08a.44.44 0 0 1 .08.17v.29l.81-1.14c-.3.07-.19 0 0 0l-.83 1.18v-.46.49l.86-1.22a29.5 29.5 0 0 1-2.94.85 19.68 19.68 0 0 0 3-.75l-.78 1.12ZM173.37 50.45c0 .12 0 .11-.05.12.03.24.05.33.05-.12ZM173.26 52a6.43 6.43 0 0 1-.11-1.37c0-.76.1 0 .17 0-.06-.53-.17-1.84-.26-.19v.26a17.55 17.55 0 0 1-.32 3.15 7.2 7.2 0 0 0 .52-1.85ZM173 60.62l.17 3.08.15-1.57-.11.08c-.01-1.76-.14-1.38-.21-1.59ZM165.83 69.32l.37-.23a12.83 12.83 0 0 1-1.63.25 10.63 10.63 0 0 0 1.26-.02ZM162.39 68.75l.18-.14a5.1 5.1 0 0 1-.78-.26 3.68 3.68 0 0 0 .6.4ZM2.22 24.27l-.06-.9c.02.43.04.7.06.9ZM2.23 30.82l.09.16c-.05-.3-.09-.42-.09-.16ZM68.19 61.17c-1.32-.18-2.8-.47-2.64-.25l.41.22a19.46 19.46 0 0 1 2.23.03ZM16.09 64.79l.07-.39-.16-.89ZM17 65.75l-.19 1.73c.01-.39.07-.94.19-1.73ZM15 2.84a11.53 11.53 0 0 1 1.11.56c-1.54-1.18-.95-.54-1.11-.56ZM125.57 62.1c-1.13-.11-2-.17-2.83-.2a9.68 9.68 0 0 0 2.83.2ZM4.53 26.84c0-.55-.08-.79-.13-.77.04.57.08.93.13.77ZM119.45 61.82l.6.06h2.69a14.33 14.33 0 0 0-3.29-.06ZM132.3 9h.3-.3ZM165.48 4.21l1.06.65a11.59 11.59 0 0 0-1.33.33c.24-.06.63-.18 1.33-.33l-1.06-.65ZM150.5 62.78c.85 0 .13 0 0 0ZM154.59 63.83c-.18 0-.32 0-.34.09a.82.82 0 0 1 .34-.09ZM111 63h-.07.07ZM151.77 62.94c-.31 0-.68-.08-1.08-.11ZM151.61 62.83l.74.05c.11-.03.01-.06-.74-.05ZM149.31 62.74c.49 0 .94 0 1.38.09h-.19ZM69.76 9.94 70 10c.8-.12.43-.11-.24-.06ZM46.26 61.28v.09-.12ZM45.5 63.75h.07l.76-.18.14-.28a9.76 9.76 0 0 1 1.37-2.15l-1.69-.27.11.4.12-.47 1.28.2-.65.26-.55 2v.1l-.86.36Z" transform="translate(-1 2.66)"/><path d="m1.89 8.61-.14 2.14c-.38-2.57-.35-4.43-.55-2.42.7.27.28 8.29 1 8.58L2 18.32v-.87c-.29 2.75.51 2 .46 5.57-.05 1.23-.15 2.09-.23 1.25L2.4 27c0 .8-.13.6-.12-.19L2.34 31c.11.6.27 2 .34 2.62-.1 1.06-.07-.54-.15-.26l.15 2.32c-.18.94-.34-1-.31-2.58-.68 2.16.16 1.92-.26 6.59L2 37.48c-.39 1.41-.27 3.12-.53 5.6.13-.59.65-5 .8-2.44a17 17 0 0 0 0 3c-.24 0-.19 1.33-.2 3l-.32-.11a15.19 15.19 0 0 0 .37 2.71 5.75 5.75 0 0 1-.53 2.88c-.1 3.2.43-2.21.44 1.58a67.2 67.2 0 0 0 .06 7.73c-.15 1.86-.19-.33-.3.33l.22 1.66c0 .41-.09.27-.12.21.06 1.39.31.12.35 2.31a5.51 5.51 0 0 1 0 2l-.06.47.54.23a14.38 14.38 0 0 0 5.17 1.25c.67.17-.36.15-.17.3a20.36 20.36 0 0 0 3.55 0 10.6 10.6 0 0 0 3-.74 7 7 0 0 0 2.13-.83l.28-.16.02-.46.06-.54a2.81 2.81 0 0 1-.12.54l-.19.51h-.11c-.24.08-.24 0-.11-.16l.25-.3v-.1a24.89 24.89 0 0 1-.36-3.22c-.14.67-.26 1.25-.32 1.63l-.06-3.23v-.33h.55c.33 0 .19.11-.17.22l-.19.06v.11l.07.31v-.42h.45c1.22.07.6.28-.27.49l.3-.3-.24 1.19c.17.85.36 1.65.55 1.48 0-.22 0-.65-.05-1.12.05.22.09.36.13.26a5.34 5.34 0 0 0-.09-1l.38-.75-.95 1 .18-.15h4.47a104.08 104.08 0 0 1 11-1.22c-1.25.28-.26.43-.32.74-1.39-.31-3.92.2-6.55.18 1.37 0 1.07.17.73.22l4.67-.37c-.1.25 1 .17 2.23.25-.94-.48 3.48-.39 5.39-.58.12.17-.33.35-2.66.35 2.58.33 3.3-.65 5.83-.37a4 4 0 0 0-1.1.08c.43 0 1.06-.08 1.69-.09h.46l.13-.45c.35-1.27.78-2.51.74-2l-.15.55c.42-1.43 1-3.45 1.51-5.41l-1.59-.11c.46 3.1 1 6 1.27 6.33 0 0-.57-.42-.69-.64l.41 1.14.26.75.48-.11 1-.23.3-.19.06-.13 1.09-2.36 1 1.75c-.2-.17-.35.08-.51.3l.13.09c.13.18.22.37 0 .53l-.65-.46a3.25 3.25 0 0 1-.8-1.38c.11.43.24.92.43 1.51l.24.72h.78c.63 0 1.39 0 2.34-.1-.61 0-1.53-.51-.7-.56 2.3.38 1.6.2 4.44.51-.92-.06.09-.65 1.54-.64-.22.08.13.56-.4.62l3.61-.58c-.91.11-.16.48.65.63-.38-.1 3.12 0 4.08-.06l-1.53-.13c4.08.08 4-.79 8.08-.76-.5.12-1.22.71.84.79a32.78 32.78 0 0 1 7.77-1.57l.68.17 2.75-.16c-1.71.41-6.52 1.29-9.14 1.64a11.6 11.6 0 0 0 2.71.19c.8.16-1.25.23-1.92.24l5.32.12c-.24-.33 4.07-.3 3.87-.58l-5.78.3c-.24-.34 3.34-.93 7.12-.83 1 .14-.73.59-.65.7a26.25 26.25 0 0 1 3.93-.1l-1.61.16c2.1.16 3.44-.4 6-.05.87 0 2.6.47 2.75.28-1.41-.41-1.68-1.6-.72-1.87.3 0 4.56.44 5.55.64 1.43.32-2.16.68-.94 1a4.18 4.18 0 0 1 1.18-.22c.91.09-.39.28 1.6.27.34-.34 4 .1.94-.28 2-.06 2.07.11 4.35.14-.72-.23 2.06-.71 4-.76-.11.08.32.2.53.26 4 .12 6.12.32 9.84.42.34.09 2.13.23 1.36.36a15.65 15.65 0 0 1 2.17-.13c2.21.36-2.55 0-.87.38a32.35 32.35 0 0 1 4.6-.27c-.49-.32-3.76-.17-5.4-.08 0-.43 2.86-.79 6.75-.87 3.09 0 1.33.31 1.87.26 5.79.26 5-.59 9.76-.11 1.9.34.07.54.49.75-2.52 0-3.86-.31-5.56-.35l2.09.19a22.68 22.68 0 0 1-3.39 0c1.59.29 9.79.37 14.25.79.79-.06 2.17-.09 1.53-.23L149 64c-1.29-.28 2.67-.18.89-.37a44.79 44.79 0 0 1 6.71.06l.49.33a10.06 10.06 0 0 0-2.5-.22c1.13-.08 4.08.63 5.32.31l-1.86-.32 2.64-.09h.78l.12 1a30.13 30.13 0 0 1 .26 4c.27-1.08-.05-.54.25-2.23-.17.66-.23-.5-.27-1.76v-1.09l-1.09-.07c-1.54-.09-3.24-.21-2 .12-1.7-.51-3-.34-5.22-.81.06.11.79.23-1.2.09a2.54 2.54 0 0 1-.44.07h-.14.11a6.15 6.15 0 0 1 1 .2c-1 .19-4.16 0-5.23.12-1.18-.1.49-.1-.15-.23l-1.6.11c-.15-.23-3.12-.49-.34-.51l-2.5-.11a34.49 34.49 0 0 0-4.75-.25c-1.17-.09-3 .15-2 0h-3.93v-.05c-3.87-.15-8 .13-12.39-.38-1.31 0-2.66.06-4.84-.05l-.42-.21c-1.67 0-5-.3-5.74-.11-1.8-.56-8.13-.28-11.07-.41l-.11.25c-2-.05-4 0-6.49.06l.15.23c-2.17.16-5.58-.24-9-.24a7.41 7.41 0 0 1 1.72 0c-4.09-.54-8.65.3-12.36-.08a12.77 12.77 0 0 1-2.25 0h-.15l-1.29-.12c.39.06.76.1 1.08.12-.71 0-1.8 0-2.86.09l-.33-.31h-.25c-1-.09-.83.11-.28.29-.53 0-1 .09-1.4.15-.85-.39-2.79.13-4-.27-.71.2-5.34.17-5.9.61 0-.06-.35-.08.22-.09a22.8 22.8 0 0 0-3.43.07l-.5-.3-2.58.44h-.16l.5.35c-.3-1.44-.37-2 .32-.64l-.64-1.47-.69-1.59-.84 1.31c-.66 1-1 1.43-1.41 2.12l.57-.3-1 .1.66.57-.27-1.06.21.12a28.07 28.07 0 0 1-.6-3.55 22.16 22.16 0 0 0-.15-2.3L44 51.94l-1.12 3.61c-.54 1.77-1.23 4.24-2 6.88l.78-.61c-3.31 0-6.89.09-9.78 0 1.29.56-3.07-.21-3.31.25-.39-.13-1.31-.19-.25-.33-3.35.19-5.05-.13-7.35.29-.39-.14.71-.22.37-.29a7.15 7.15 0 0 1-1.42.07c-.34-.06.49-.14 1-.21-3.43.15-3.76.6-4 1l-.91-.05h-.56l-.07.67a9.26 9.26 0 0 0 .09 2.95c-.15.6-.32 1.6-.3-.52L15.1 68l.35-.65c-1.52 1.1-4.32 1.1-4.37 1.31-.36-.06-1.61 0-1.92-.05a24.09 24.09 0 0 1-2.69-.4c-.7-.14-1.39-.28-2.64-.61l.68.24a3.49 3.49 0 0 1-1.43-.2l.28.4c0-.74.14-1.63.14-2.85v.06c.38-4.87-.09-2.11.32-6.92l-.24.26c-.51-.46.38-4.26.22-7l-.15 1c-.16-1.52.76-4.25.84-5.78 0-.34.07.52.09 1 .35-4-.3-.52-.34-3.51.17-.55.42.71.47-1.3.15-1-.5-5.84-.17-8.59-.13.61-.27 1.21-.36-.18 0-2.13.51-5.76.08-7.68 0-.27.07-.37.1-.38-.11-1.63-.21-5.29-.45-6.27.84-1.52-.58-10.11.16-10.09a83.09 83.09 0 0 0-.18-5.11l.11.13V3.58l-.56.94c.9-.4 1.67-.65 2.24-.85l1.46-.49c.71 0 .2.1.15.15h1.3l-.81-.53c.42 1.08.74 1.87 1 2.56l1 2.26.72-2.34c.26-.83.45-1.54.66-2.45l-.87.54a10.09 10.09 0 0 1 2.18.39l.24.37a6.89 6.89 0 0 1 2.61 2l-.32-.7c-.11 1.19-.23 2.57-.32 4l-.05 1 1 .06c1.25.07 2.53.12 3.73.1 0 0-.14.07-.51.09 5.17 0 12.34 1.15 14.25.28l3.41-.14c-4.4-.18.67-.38-1.14-.57 1.73 0 4.47.36 2.34.37l-.33-.05c-.79.46 5.46.27 5.34.59 8.66.12 17.11.46 25.22.52l-.93-.37h2.83c.74.09 1 .29-1 .27a10.62 10.62 0 0 0 3.44-.24c4 .16-1.55.42-.33.43h1.64-.37a18.83 18.83 0 0 1 3.88-.28c1.54.08.79.23 1.4.24h4.49l-1.43-.29c1.58-.14 3.36 0 1.71-.31 2.42.51 13.3.17 14.79.31 2.21-.21 4.39-.22 7.1-.21-.67-.06-1.08-.38 1.26-.36-.85.68 4.27.26 6.17.73-1.69-.3 6.63-.15 4-.58 2 0 .12.25 1.6.39 1.49-.1 3.08-.13 4.74-.14l-.89-.74.62 4.43.56 4 1.32-3.91c.49-1.44 1-2.92 1.46-4.42l-1 .73 2.09-.05c.09-.09-.87-.2.36-.36l3 .38c1.13-.07 1-.53 3.11-.27-.3-.07-.74-.17 0-.21 9 .13 18.21-.41 27.37-.49h.84v-.87l-.08-2.77-.25.71a7.91 7.91 0 0 1 3.2-1.93c-1.3.41-.51 0 .5-.38-.67.18-.06-.21-.22-.28a8.65 8.65 0 0 1 1.51-.25l-.82-.51.61 2.46.58 2.35 1.2-2.24.27-.53a8.75 8.75 0 0 1 .73-2.07l-.74.49c1.38 0 2.93.38 3.25.28a14 14 0 0 0-1.51-.24c1.46 0-.63-.78-1.82-1.1h-.09l-.16.18c-.26.33-.48.52-.56.4a9 9 0 0 1-.77 2h1c-.2-.75-.38-1.59-.59-2.47l-.14-.55h-.68a7.28 7.28 0 0 0-4.69 2.26c-.74.48.5-.58.06-.38l-1.28 1.41-.22.24v.31c.06.62.09 1.4.11 2.39l-.04-.27v.57l.78-.85c-5.5.22-8.08.06-14.45.07L147 9c-1.42 0-1.72-.07-2.39-.11-1.62.39 4-.06 2.51.36-1.89-.44-10 .2-11.29-.32-2.19 0 .64.26-1.54.3l-.58-.13-.55.2c-1.43 0-2.16-.17-2.22-.3.35 0 1 0 1.36-.07-1.86-.14-5.23.16-5.87.12l2.1.05-3.53.16h-.8l-.2.74c-.45 1.45-.91 3-1.38 4.45l2.11.15-.72-4.41-.15-.91h-.93c-2.21.05-4.35.13-6.32.25l.43.1c-4.39.26-3.52-.08-8.35.06h.18a31 31 0 0 1-3.58.18c1.22-.14-2.3-.24-.7-.4a27.1 27.1 0 0 0-5.5.62l-.73-.18a17.34 17.34 0 0 1-3.58.32c2-.17-1.54-.28.68-.5-5.06-.39-7.52.42-9.84-.17-2.32.52 4.38.29 3.08.39 1.09.17-1.92.39-3.51.34s-2.75-.66-6.81-.66h.83c-1.52-.13-3 .17-4.85 0-1 .31-2.42 0-2.72.37l3.73-.08a46.65 46.65 0 0 1-7.59.31 16.88 16.88 0 0 1 2-.23c-1-.12-2 .07-3-.06.3-.4 4.53-.06 6.8-.35-1.09-.17-4.29.26-3.15-.16-1.64.54-4-.09-6.76.31l.18-.24a20.85 20.85 0 0 1-2.14.13l1.45-.3c-2.23.25-4.29-.26-6.43-.14 4.48 0 1 .3 2.89.49-5.55.21-3.2-.68-9.38-.68.84 0 3.14.18 1.83.28-1.18-.06-2.73-.18-3.45-.31-4.1 0 .63.25-1.12.37-1.39-.31-2 .09-3.81.15v-.23c-4.66-.24-1.24.48-5.44.22l1.75-.3h-2.19l.48-.18a34.25 34.25 0 0 1-5.46-.06c.54.19-.32.44-2.38.39-1.45-.23.79-.25-2.14-.33A5.83 5.83 0 0 1 31 9c.14-.07.66-.13.8-.21-1.52-.2-3.81-.15-4.87-.18.41 0 .89.05 1.14.09l-4.25.19c-.66-.12-.13-.17.39-.22-.85 0-1.45.08-2.72.05.34-.18.27-.39 2.06-.41H19.5c-.26-.1-2.06-.34-1.53-.38a19.82 19.82 0 0 0-2.13-.09l1.5 1.64V4.93l-.38-.37a16.21 16.21 0 0 0-2.06-1.74c-.17-.06-.48-.24-1.14-.53a11.53 11.53 0 0 0-3.15-1.08L9.49 1l-.41 1.13c-.28.78-.56 1.57-.83 2.4l2.65-.12c-.34-.8-.72-1.62-1.16-2.5L9.28 1l-.76.08h-.4A14.72 14.72 0 0 0 6 1c-1.41.33-.68.29-.21.31.23 0 .41.05.24.13s-.68.21-1.78.57-1.55.56-1.8.62l-.38.07-.25 1c-.08.35-.3-.19-.33.5a29.45 29.45 0 0 1 .49 7c-.07-1-.04-1.73-.09-2.59Zm.4 32a10.1 10.1 0 0 1 0-2.31 4.73 4.73 0 0 1 0 2.28Zm16.94 23a7.79 7.79 0 0 1-2 0 18.09 18.09 0 0 1 2-.03Zm121.94-1h-.06c-1.38-.13-.89-.08.06 0Zm2.88.21c.29 0 .27-.06.15-.09a9.13 9.13 0 0 1-1.59 0 4.53 4.53 0 0 0 1.44.09ZM78.83 11.6l-.55-.07c1.26-.07.9 0 .55.07Z" transform="translate(-1 2.66)"/><path d="M16.85 65.62a.4.4 0 0 1-.14.26c.04.24.08.25.14-.26ZM14.78 2.76l.09.06h.12ZM99.48 63.7a7.36 7.36 0 0 1-1.14-.14c-.04.06.23.11 1.14.14ZM159.31 63.12h-1.85a13.8 13.8 0 0 1 1.66.17s-.39-.2.19-.17ZM170.44 70.18c.26-.08.56-.12.81-.2l-.1-.09c-1.15.24-1.89.45-.71.29ZM161.34 64.92a7 7 0 0 0 0 2.59v-.23c.27.37.13-.99 0-2.36ZM161.34 67.81V69c.16.15.05-.48 0-1.19ZM147.7 62.83c.61.08.39-.24.74-.15.69-.23-4.1.15-.74.15Z" transform="translate(-1 2.66)"/><path d="m159.7 68.64.24-.47-.23-.71-.01 1.18z"/><path d="m151.81 64 2.05.17s.24-.06.56-.06a20.66 20.66 0 0 0-2.61-.11ZM154.42 64.13a14.35 14.35 0 0 0 1.66 0c-.36.03-1.08 0-1.66 0Z" transform="translate(-1 2.66)"/><path d="m158.15 67.32-.61-.09-1.45-.1 2.06.19z"/><path d="M129.66 63.17h-2.25c-.23.08.38.15 1.22.14.54-.03 1.37-.04 1.03-.14ZM136.44 64.07a4.13 4.13 0 0 1-1-.22l-.08.31ZM129.88 63.94c-.22.08-3.27.15-.42.22.23-.08 2.54-.09.42-.22Z" transform="translate(-1 2.66)"/><path d="m95.01 65.45.57.01-.07-.51-.5.5z"/><path d="M66.14 63.77c2.67.12.64-.32 3-.16.63-.12-2-.13-1.32-.23-1.57.13-2.42.05-1.68.39ZM67.86 63.38l.82-.08c-.47.03-.68.06-.82.08ZM169.13 5a13 13 0 0 1 1.53.33c-.32-.12-.64-.24-1-.33ZM172.2 5.26l.25.43h.94c.05 0-.07 0-.15-.1a.78.78 0 0 1-.2-.24.77.77 0 0 0 .24.27 1 1 0 0 0 .12.07h-.07l-.15-.06-.35-.13a3.48 3.48 0 0 1-.63-.24ZM1.59 45.33l.08.13A5.83 5.83 0 0 0 1.79 44Z" transform="translate(-1 2.66)"/><path d="M.89 24.78v.4l.28-.75-.28.35z"/><path d="M3.28 1.48A9.28 9.28 0 0 0 2.14 2L1 2.5l.08 1.22c0 .51.08 1 .09 1.49a12.5 12.5 0 0 1 0-1.49l.07-1.36.93-.36c.95-.33 1.32-.33 1.11-.52ZM173.79 5a14.44 14.44 0 0 0-4.72-1.18h-.85l-1.07 2.54-.78-2.41a9.44 9.44 0 0 0-5.56 2.94c.07.89.12 1.81.16 2.74l-5.19.16c-7.17.21-20.17.46-30.78.64l-1.38 4.44-.71-4.41c-23.41.38-77.86.44-102.69-.71l-4.49-.22c0-1.36.11-2.69.2-4a9.44 9.44 0 0 0-5.56-2.94L9.6 5 8.52 2.42h-.84A14.46 14.46 0 0 0 3 3.63C4 26.5 3 68 3 68a28.09 28.09 0 0 0 8 1.3 8.9 8.9 0 0 0 5-1.3c.07-1.63.12-3.22.16-4.79l4.4-.18c4.27-.16 17-.27 21.21-.37l1.91-6.89.92 6.84h1l1.52-2 .67 2c37-.57 91.34.91 109.29 1.93l3.63.21c0 1.52.09 3.06.15 4.64a8.9 8.9 0 0 0 5 1.3 28.09 28.09 0 0 0 8-1.3s-1.15-41.56-.07-64.39Z" transform="translate(-1 2.66)"/><path d="M175 4.29A15.76 15.76 0 0 0 168.8 3a2.25 2.25 0 0 0-2 1l-1.1 2.49 2.89-.59-.77-2.41c-.14-.43-.9-.41-1.24-.35a13 13 0 0 0-5.09 1.95 6.28 6.28 0 0 0-2 1.74c-.39.75 0 2.27.06 3.12l2-1.16c-12 .4-24 .6-36 .8-.6 0-1.8.26-2 1L122.17 15l2.9-.59-.71-4.41c0-.33-.63-.38-.87-.38-13.12.21-26.24.26-39.35.25-15.27 0-30.54-.1-45.81-.41-7.35-.15-14.69-.38-22-.77l.87.57q.06-1.77.18-3.54c.06-1-.56-1.33-1.31-1.9a10.82 10.82 0 0 0-4.77-2c-.69-.12-2.09.15-2.34.94l-.81 2.4L11 4.57 10 2c-.13-.33-.55-.39-.87-.38A16.9 16.9 0 0 0 2.39 3.1c-.38.18-.91.43-.89.92.91 19.56.53 39.22.13 58.79 0 1.8-.08 3.7-.13 5.38a.42.42 0 0 0 .29.47 26.1 26.1 0 0 0 9 1.38 12.15 12.15 0 0 0 5.4-1.28c1-.54 1.2-.82 1.24-1.94s.09-2.55.12-3.82l-2 1c8.53-.36 17.07-.37 25.61-.55.59 0 1.83-.26 2-1l1.92-6.9-2.89.58.89 6.87c0 .34.63.39.87.38 1.21 0 2.32 0 3.13-1 .46-.57.89-1.18 1.33-1.78l-2.79.39.67 2c.11.33.58.38.87.38 16.45-.25 32.91-.12 49.36.14q22.61.34 45.19 1.13c6.13.23 12.25.5 18.37.86l-.87-.38c0 1.08.06 2.16.1 3.24s-.09 1.52 1 2.08a11.17 11.17 0 0 0 5.17 1A27.68 27.68 0 0 0 174 70c.48-.16 1.29-.42 1.27-1-.4-15.61-.59-31.24-.44-46.86.06-5.77.17-11.54.44-17.31 0-1.09-2.85-.49-2.89.4-.92 19.69-.54 39.47-.13 59.16 0 1.8.08 3.59.13 5.39l1.27-1a23.94 23.94 0 0 1-6.1 1.17 9 9 0 0 1-4.55-.62c-1.28-.69-.83-3.61-.86-4.92 0-.35-.67-.37-.87-.38-12.15-.73-24.31-1.1-36.48-1.42q-24.74-.68-49.48-.82c-9-.05-18 0-27 .11l.88.37-.67-2c-.32-.95-2.41-.12-2.79.39l-1.53 2 1.92-.77h-1l.87.38-.91-6.84c-.13-1-2.7-.11-2.89.58l-1.91 6.9 2-1c-8.54.18-17.08.18-25.61.54-.43 0-2 .27-2 1 0 1.6-.09 3.19-.15 4.79l.56-.58c-2 1.31-4.72 1-7 .63a25.81 25.81 0 0 1-4-.92l.28.47C4.8 52 5 36.2 4.83 20.4 4.77 14.68 4.66 9 4.4 3.24l-.9.93A11.36 11.36 0 0 1 8 3.18l-.92-.38 1.07 2.55c.39.93 2.65.17 2.89-.59l.78-2.41-2.35.94A8.9 8.9 0 0 1 13.5 5a1.85 1.85 0 0 1 .9 2c-.05.89-.08 1.79-.12 2.68 0 .49.47.55.87.57 13.76.73 27.55.91 41.33 1q23 .21 45.9.08c6.65 0 13.3-.09 20-.2l-.87-.38.71 4.41c.15 1 2.68.09 2.89-.59l1.39-4.44-2 1c12-.2 24-.39 36-.79.61 0 2.07-.3 2-1.16 0-.6-.13-1.24-.1-1.84 0-.8.41-1.11 1.07-1.57a6.77 6.77 0 0 1 2.77-1.14L165 4.28l.78 2.41c.32 1 2.61.08 2.89-.59l1.07-2.54-2 1a12.79 12.79 0 0 1 5 1.12c.68.32 3.35-.86 2.26-1.39Z" transform="translate(-1 2.66)"/><path d="M170.6 9.22v56.11s-5-.38-13.57-.86c-17.95-1-72.29-2.5-109.29-1.93l-.67-2-1.52 2h-1l-.92-6.84-1.93 6.95c-4.21.1-16.94.21-21.21.37-3.62.12-7.26.27-10.89.45l1.86-54.25c2.85.17 5.77.33 8.76.46 24.83 1.15 79.28 1.09 102.69.71l.71 4.41 1.38-4.44c10.61-.18 23.61-.43 30.78-.64 9.22-.27 14.82-.5 14.82-.5Z" transform="translate(-1 2.66)" style="stroke:#000;fill:#b4ab9e;stroke-linecap:round;stroke-miterlimit:10"/><path d="M170.6 9.22v56.11s-5-.38-13.57-.86c2.06-14 4.1-37.06-1.25-54.75 9.22-.27 14.82-.5 14.82-.5Z" transform="translate(-1 2.66)" style="fill:#9c28ba;opacity:.32;mix-blend-mode:multiply"/><path d="M20.49 63c-3.62.12-7.26.27-10.89.45l1.86-54.23c2.85.17 5.77.33 8.76.46-4.87 17.38-3.01 42.4.27 53.32Z" transform="translate(-1 2.66)" style="fill:#00b900;opacity:.32;mix-blend-mode:multiply"/><path class="cls-12" d="M15.93 68a8.9 8.9 0 0 1-5 1.3A28.09 28.09 0 0 1 3 68S4 26.5 3 3.63a14.46 14.46 0 0 1 4.68-1.18h.84L9.6 5l.77-2.41a9.44 9.44 0 0 1 5.56 2.94C14.85 19.86 17 39.8 15.93 68Z" transform="translate(-1 2.66)"/><path class="cls-13" d="M15.41 68.18c1.08-28.18-1.08-48.18 0-62.5a7 7 0 0 0-4.72-2.58l-.2.63a5.28 5.28 0 0 1 3.72 1.95C13.13 20 16.49 40 15.41 68.18ZM8.17 2.93h-.84C7.06 2.93 7 3 6.8 3c.31.06.8.18 1.58.4Z" transform="translate(-1 2.66)"/><path class="cls-14" d="M10.92 69.29A28.09 28.09 0 0 1 3 68S4 26.5 3 3.63a14.46 14.46 0 0 1 4.68-1.18c-3.86 7.34-.8 21.18-1.27 29.64-.52 9.34-2.56 25.78 4.51 37.2Z" transform="translate(-1 2.66)"/><path class="cls-12" d="M160.81 69.32a8.9 8.9 0 0 0 5 1.3 28.09 28.09 0 0 0 8-1.3s-1.08-41.49 0-64.36a14.44 14.44 0 0 0-4.72-1.18h-.85l-1.07 2.54-.78-2.41a9.44 9.44 0 0 0-5.56 2.94c1.06 14.34-1.1 34.28-.02 62.47Z" transform="translate(-1 2.66)"/><path d="M167.19 69.33a9 9 0 0 1-5-1.3c-.54-14.21-.66-26.45-.79-36.94-.28 10.64-.61 23.14 0 37.94a8.92 8.92 0 0 0 5 1.3 24.75 24.75 0 0 0 6.85-1.33c-1.82 0-4.11.35-6.06.33Z" transform="translate(-1 2.66)" style="fill:#00b900"/><path class="cls-14" d="M165.82 70.62a28.09 28.09 0 0 0 8-1.3s-1.08-41.49 0-64.36a14.44 14.44 0 0 0-4.72-1.18c3.85 7.34.79 21.18 1.27 29.64.48 9.34 2.53 25.78-4.55 37.2Z" transform="translate(-1 2.66)"/><g style="clip-path:url(#clip-path-2)"><g class="cls-17"><path class="cls-18" d="M20.48 37.79c-.57 1 .18 1.86.87 2.72.26-.82.51-2.88-1-2.72M30.25 48.58c-.54.29-1 .75-1.5 1.09A10.81 10.81 0 0 0 29.84 51c.45-.26.83-.69 1.31-.93a.86.86 0 0 0-.26-.14 2.57 2.57 0 0 1-.16-.54 2.64 2.64 0 0 1 1.17-.52c.15-.74-.28-1.48-.3-2.22-.58-.05-1.94-.28-2.3.27-.52.82.91 1.22.8 2M26.24 40.22v1.79A1.42 1.42 0 0 0 27 42c.14-.58 0-1.66-.58-1.94M38.63 55.31v1.79a1.26 1.26 0 0 0 .72 0c.13-.58 0-1.66-.59-1.94M17.25 52.2a18 18 0 0 0 0 1.8 1.42 1.42 0 0 0 .75 0c.13-.58 0-1.66-.59-2" transform="translate(-1 2.66)"/><path class="cls-18" d="M29 55.52c.59-.41 1.23-1 1-1.51s-2.1-1.15-2.65-1.52a4 4 0 0 0-1.61-.86c-.77-.14-1.74.25-2.59.17v-1.39c0-.44-.43-.47-.21-.95.34-.76 1.67-.43 2.36-.49-.33-1.39.55-5.45-2.18-4.78.08 1 1 2.15 1 3.17a18.3 18.3 0 0 1-2.77 0c-1.15-.1-.78.14-1.38-1-.28-.5-1.16-2.4-1.69-2.45s-1.23 1-1.2 1.44l-.41.81c0 .09.73.63.84 1a9.46 9.46 0 0 1-.38 1.33c-.65-.26-1.34-.83-2.05-.71a12.67 12.67 0 0 1 .42 4c.58-.33 1.14-.88 1.74-1.16.62.7 1.13 1.46 1.71 2.2.82 1 .68.61 1.93.22 0 1 1.16 4.44 2.24 4.1-.1.59-.72 1.35-1.4 1.14-.91-.27-.4-1.2-.76-1.83-.55-1-2.73-.16-2.89-1.32.06 1 .81 1.62.62 2.53-.16.72-.65.88-.41 1.62.1.32.7.81 1 1.06 1.09 1.06 2 2.22 3.49 2.38s2.84-.12 4.22 0c0 .65.16 1.58 1 1.35.34-1.59-1.4-3-.79-4.63.56-1.46 1.93-.6 3-.21 0-.57.49-.72 1-.62.17-1.32-1.55-2.07-2.2-3.09Zm-4.13 1.08c-.68-.15-.75-1.64-.75-2.14h.15a.39.39 0 0 0 0 .28 2.87 2.87 0 0 1 1.16.94c.18.32.11 1.07-.56.92Z" transform="translate(-1 2.66)"/><path class="cls-18" d="M18 55.16a2.23 2.23 0 0 1 0-.44 1.35 1.35 0 0 0 0 .44ZM33.67 58.1a3.47 3.47 0 0 1 2.44 2.55c1.16.1 2.3-.26 3.46-.13.52.06 2 .78 1.8-.28-.65.33-1.71-.43-2.13-1.06a2.29 2.29 0 0 1-1.46.41 4.06 4.06 0 0 0-.5-1.77h-1c-.17-.81.61-1.59.44-2.4-.12-.63-1.17-1.71-1.8-1.64a11.73 11.73 0 0 0 .31 3.74l.25.05a.94.94 0 0 1 0 .55c-.45.31-.92.09-1.34-.14-.12 0-.16 0-.15.17ZM32.48 60.35a1.42 1.42 0 0 0 .71 0c.51-1.83-1.35-.22-.71 0Z" transform="translate(-1 2.66)"/></g><g class="cls-17"><path class="cls-18" d="M54.92-2.65c-.64 1.17.21 2.11 1 3.08.29-.92.58-3.26-1.16-3.08M66 9.59c-.62.34-1.11.86-1.7 1.24a11.09 11.09 0 0 0 1.23 1.48c.51-.29.95-.78 1.49-1.05a1 1 0 0 0-.3-.15 3.62 3.62 0 0 1-.18-.62 2.87 2.87 0 0 1 1.33-.59c.17-.85-.32-1.69-.35-2.52-.66-.06-2.19-.32-2.6.31-.6.93 1 1.38.91 2.24M61.46.11v2a1.59 1.59 0 0 0 .81 0c.15-.66 0-1.88-.66-2.21M75.51 17.22a19.79 19.79 0 0 0 0 2 1.55 1.55 0 0 0 .8 0c.15-.66 0-1.89-.66-2.21M51.26 13.7v2a1.59 1.59 0 0 0 .81 0c.15-.66 0-1.89-.66-2.21" transform="translate(-1 2.66)"/><path class="cls-18" d="M64.57 17.46c.67-.46 1.39-1.08 1.14-1.71s-2.38-1.31-3-1.72a4.67 4.67 0 0 0-1.83-1c-.88-.15-2 .29-2.94.2v-1.59c0-.36-.5-.53-.25-1.08.4-.85 1.9-.48 2.68-.54-.37-1.56.63-6.17-2.44-5.41.07 1.18 1.18 2.44 1.07 3.6a20.57 20.57 0 0 1-3.14 0c-1.3-.11-.88.16-1.57-1.13C54 6.53 53 4.38 52.4 4.32S51 5.44 51 6l-.46.91c0 .11.82.72 1 1.16a14 14 0 0 1-.42 1.51c-.75-.29-1.53-.93-2.34-.8a14.3 14.3 0 0 1 .48 4.53c.66-.38 1.3-1 2-1.32.71.8 1.28 1.65 1.94 2.49.94 1.19.77.7 2.2.25 0 1.09 1.31 5 2.53 4.65-.11.67-.81 1.53-1.59 1.3-1-.31-.44-1.36-.85-2.08-.62-1.11-3.1-.18-3.28-1.5.07 1.14.92 1.85.7 2.87-.18.82-.73 1-.46 1.84.11.36.79.92 1.08 1.21 1.24 1.2 2.26 2.51 4 2.69s3.21-.13 4.78 0c0 .74.18 1.8 1.14 1.54.39-1.8-1.58-3.41-.89-5.25.63-1.66 2.19-.69 3.41-.24 0-.65.56-.82 1.15-.7.15-1.59-1.8-2.45-2.55-3.6Zm-4.67 1.22c-.76-.17-.85-1.85-.85-2.42h.17a.41.41 0 0 0 0 .31 3.32 3.32 0 0 1 1.31 1.07c.21.42.13 1.21-.63 1.04Z" transform="translate(-1 2.66)"/><path class="cls-18" d="M52.16 17.05a2 2 0 0 1 0-.49 1.39 1.39 0 0 0 0 .49ZM69.88 20.39c1.11 0 2.69 1.8 2.77 2.89 1.32.11 2.61-.29 3.93-.14.58.06 2.27.87 2-.33-.73.38-1.93-.49-2.41-1.2a2.6 2.6 0 0 1-1.65.47 4.58 4.58 0 0 0-.58-2L72.83 20c-.2-.92.68-1.8.49-2.73-.14-.71-1.33-1.94-2-1.86a13.08 13.08 0 0 0 .35 4.24l.28.06a1 1 0 0 1 0 .63 1.39 1.39 0 0 1-1.52-.17c-.13 0-.18.07-.17.2ZM68.53 22.94a1.59 1.59 0 0 0 .81 0c.58-2.08-1.53-.25-.81 0ZM37.29 21.8c-.67.45-1.39 1.08-1.15 1.71s2.38 1.31 3 1.72a4.42 4.42 0 0 0 1.82 1c.89.16 2-.28 2.94-.19v1.58c0 .5.49.54.24 1.08-.39.86-1.9.48-2.67.55.36 1.58-.63 6.18 2.46 5.43-.09-1.18-1.17-2.44-1.08-3.6 1.38-.11 1.36.07 2-.91a17.68 17.68 0 0 1 1-2.42c1.77 0 .23 2.47-.06 3.17 1 0 1.26.39 1.73 1.27.31.57 1.3 2.72 1.91 2.78s1.39-1.12 1.37-1.63l.45-.92c0-.1-.82-.71-.94-1.16a10.44 10.44 0 0 1 .42-1.5c.74.28 1.53.93 2.33.79a14.5 14.5 0 0 1-.45-4.55c-.65.37-1.29 1-2 1.32-.71-.8-1.28-1.66-1.94-2.5-.93-1.18-.77-.69-2.2-.24 0-1.1-1.3-5-2.53-4.65.11-.67.82-1.53 1.59-1.31 1 .31.45 1.37.85 2.09.63 1.1 3.11.17 3.29 1.5-.13-.94-.83-1.8-.74-2.76.09-.8.75-1.25.67-2.09-.38-3.56-3.75-.74-5.34 0a4.59 4.59 0 0 1-.55-.78c1.72-1.11 1-2.29-.26-3.29a20 20 0 0 1-3.86.27c.06-.74-.18-1.8-1.13-1.53-.4 1.8 1.57 3.41.88 5.25-.63 1.66-2.19.69-3.4.24 0 .65-.56.81-1.15.7-.21 1.56 1.75 2.42 2.5 3.58ZM42 20.57c.77.18.85 1.86.86 2.43h-.18a.39.39 0 0 0 0-.32 3.29 3.29 0 0 1-1.31-1.07c-.25-.41-.17-1.21.63-1.04Z" transform="translate(-1 2.66)"/><path class="cls-18" d="M49.7 22.21a2.79 2.79 0 0 1 0 .49 2.12 2.12 0 0 0 0-.49Z" transform="translate(-1 2.66)"/></g><g class="cls-17"><path class="cls-18" d="M171.8 32.51c-1.25-.69-2.26.22-3.3 1.06 1 .31 3.5.61 3.3-1.24M158.7 44.39c-.37-.67-.92-1.2-1.34-1.83a12.56 12.56 0 0 0-1.58 1.32c.31.54.83 1 1.13 1.6a1.12 1.12 0 0 0 .16-.33 3.08 3.08 0 0 1 .66-.18 3 3 0 0 1 .63 1.41c.91.19 1.8-.33 2.7-.37.06-.7.34-2.35-.33-2.78-1-.64-1.48 1.1-2.4 1M168.85 39.51h-2.18a1.61 1.61 0 0 0 0 .87c.71.16 2 0 2.37-.71M150.52 54.56h-2.18a1.57 1.57 0 0 0 0 .86c.71.16 2 0 2.36-.71M154.29 28.59h-2.18a1.57 1.57 0 0 0 0 .86c.71.16 2 0 2.36-.71" transform="translate(-1 2.66)"/><path class="cls-18" d="M150.27 42.84c.48.71 1.15 1.49 1.83 1.22s1.4-2.54 1.84-3.21a4.85 4.85 0 0 0 1-2c.17-.94-.3-2.11-.2-3.15h1.69c.39 0 .57-.53 1.16-.26.92.42.51 2 .58 2.86 1.7-.39 6.63.68 5.82-2.64-1.27.1-2.61 1.26-3.86 1.17a22.29 22.29 0 0 1 0-3.37c.12-1.39-.17-.94 1.21-1.68.61-.33 2.92-1.4 3-2.05s-1.2-1.49-1.75-1.46l-1-.49c-.11 0-.77.88-1.24 1a12.44 12.44 0 0 1-1.61-.45c.3-.8 1-1.64.85-2.5a15.38 15.38 0 0 1-4.85.52c.41.69 1.07 1.38 1.42 2.1-.86.76-1.78 1.38-2.67 2.08-1.27 1-.75.83-.27 2.36-1.17 0-5.39 1.4-5 2.71-.71-.11-1.64-.88-1.39-1.7.32-1.1 1.46-.48 2.23-.92 1.18-.67.18-3.32 1.6-3.51-1.22.07-2 1-3.07.75-.88-.19-1.07-.79-2-.5-.39.12-1 .85-1.29 1.17-1.29 1.32-2.7 2.42-2.89 4.24s.14 3.44 0 5.13c-.8-.06-1.93.19-1.65 1.22 1.93.42 3.65-1.7 5.62-1 1.78.67.74 2.34.26 3.64.7 0 .87.6.75 1.23 1.72.38 2.61-1.71 3.88-2.51Zm-1.32-5c.19-.82 2-.9 2.6-.91v.18a.45.45 0 0 0-.34 0 3.6 3.6 0 0 1-1.15 1.4c-.44.23-1.29.14-1.06-.67Z" transform="translate(-1 2.66)"/><path class="cls-18" d="M150.7 29.55a2.4 2.4 0 0 1 .53 0 1.62 1.62 0 0 0-.53 0ZM147.13 48.53c0 1.18-1.94 2.88-3.1 3-.12 1.41.31 2.79.15 4.21-.07.62-.94 2.42.35 2.17-.41-.78.53-2.07 1.29-2.58a2.78 2.78 0 0 1-.5-1.77 4.81 4.81 0 0 0 2.15-.62c0-.39 0-.82.06-1.22 1-.22 1.93.73 2.91.53.77-.16 2.08-1.43 2-2.19a14.09 14.09 0 0 0-4.54.37c0 .1 0 .2-.07.31a1.18 1.18 0 0 1-.67 0 1.5 1.5 0 0 1 .18-1.64c0-.13-.07-.19-.21-.17ZM144.4 47.08a1.61 1.61 0 0 0 0 .87c2.22.62.26-1.64 0-.87Z" transform="translate(-1 2.66)"/></g></g></g></g></svg>