<svg width="30" height="30" viewBox="0 0 30 30" fill="none" xmlns="http://www.w3.org/2000/svg">
<path d="M29.352 0.328427C29.2844 0.350947 29.2394 0.358451 29.2018 0.373465L28.2336 0.568643C26.5674 0.906438 24.9012 1.23672 23.2275 1.56701C23.0399 1.60454 22.9123 1.6796 22.7922 1.82223C21.9966 2.77556 21.1935 3.71388 20.3904 4.65971L12.3296 14.1855C11.3914 15.2965 10.4457 16.415 9.5 17.526C9.74017 17.7512 9.94282 17.9613 10.1455 18.1715L10.4082 18.4343C10.4157 18.4418 10.4232 18.4493 10.4307 18.4568C10.4382 18.4493 10.4457 18.4418 10.4532 18.4343L20.0302 8.86339C20.1277 8.7658 20.2328 8.66071 20.3454 8.57813C20.6531 8.34543 21.0434 8.36796 21.3211 8.6382C21.5988 8.90093 21.6438 9.28375 21.4412 9.60653C21.3586 9.74165 21.2536 9.84674 21.156 9.93682L15.0465 16.0472C13.8682 17.2182 12.6973 18.3967 11.519 19.5678C11.7591 19.7854 11.9543 19.9881 12.1419 20.1833L12.4196 20.4685C12.4271 20.476 12.4421 20.4911 12.4496 20.4986C12.4572 20.4911 12.4647 20.4836 12.4797 20.476L23.1074 11.4832C24.7886 10.0569 26.4699 8.63819 28.1586 7.21945C28.3012 7.09934 28.3762 6.98674 28.4063 6.84412C28.5939 5.85325 28.789 4.86988 28.9917 3.87902C29.1643 3.03828 29.3369 2.20507 29.5096 1.36434L29.6522 0.673723C29.6522 0.598657 29.6597 0.516095 29.6747 0.426016C29.6747 0.39599 29.6822 0.350948 29.6822 0.305908C29.6372 0.305908 29.5996 0.313407 29.5621 0.320913C29.5021 0.320913 29.427 0.328427 29.352 0.328427Z" fill="#CA8DFF"/>
<path d="M0.958793 0.643696L0.973804 0.696248C0.996321 0.771314 1.01884 0.853891 1.03385 0.936463L1.22148 1.8823C1.54422 3.49621 1.87446 5.11762 2.18969 6.73153C2.22722 6.94172 2.30227 7.06932 2.44487 7.19694C5.12433 9.45641 7.79627 11.7159 10.4682 13.9829C10.9411 13.4049 11.3989 12.8719 11.8642 12.3389C11.2188 11.7009 10.6258 11.1079 10.0404 10.5148L9.44747 9.92182C9.33489 9.80922 9.25233 9.71915 9.17728 9.62156C8.94461 9.30629 8.96713 8.93095 9.23732 8.6457C9.43246 8.43551 9.64262 8.39048 9.78522 8.39048C9.94284 8.39048 10.1005 8.44302 10.2431 8.54811C10.3481 8.62317 10.4382 8.70576 10.5283 8.79584L11.0011 9.26875C11.6241 9.8918 12.2545 10.5148 12.87 11.1454C13.3503 10.5674 13.8157 10.0119 14.2885 9.47142C13.8532 8.96098 13.4479 8.48056 13.0426 8.00014L7.81879 1.82223C7.6912 1.6721 7.59362 1.60454 7.47354 1.58202C6.48281 1.38685 5.4996 1.19168 4.50888 0.996506C3.72831 0.838868 2.94024 0.673736 2.15967 0.516098L1.28153 0.335925C1.20647 0.335925 1.12391 0.328419 1.04135 0.313406C1.00383 0.305899 0.958792 0.305907 0.921265 0.298401C0.92877 0.34344 0.92877 0.380976 0.936276 0.418509C0.951287 0.493574 0.958793 0.576137 0.958793 0.643696Z" fill="#CA8DFF"/>
<path d="M2.12209 25.8432C1.53666 26.0084 1.16139 26.3987 0.95874 27.0443V27.7949C1.15388 28.4255 1.55167 28.8308 2.18964 29.026L2.9627 29.011C3.03025 28.9885 3.1053 28.966 3.17285 28.9359C3.99845 28.5906 4.40375 27.7049 4.11103 26.8791C3.83333 26.0684 2.94769 25.603 2.12209 25.8432Z" fill="#CA8DFF"/>
<path d="M29.5772 26.8191C29.2619 26.0234 28.3538 25.5805 27.5357 25.8582C26.7026 26.1435 26.2372 27.0143 26.4774 27.855C26.6425 28.433 27.0403 28.8158 27.6783 29.0185H28.4288C29.0593 28.8234 29.4646 28.418 29.6597 27.7874L29.6447 26.9917L29.5772 26.8191Z" fill="#CA8DFF"/>
<path d="M8.00638 18.2241L7.2108 17.4284C6.98563 17.2032 6.68542 17.0831 6.28763 17.0681C5.94988 17.0906 5.67968 17.1882 5.47704 17.3758C5.13929 17.6836 4.82406 18.0064 4.50883 18.3292C4.45629 18.3817 4.44128 18.3967 4.50883 18.4868C4.55386 18.5469 4.6064 18.5994 4.66645 18.652L11.3163 25.3028C11.3838 25.3703 11.4214 25.4078 11.4589 25.4379C11.5415 25.5054 11.579 25.5205 11.5865 25.5205C11.594 25.5205 11.624 25.5054 11.6916 25.4454C11.9843 25.1676 12.2695 24.8824 12.5472 24.5896C13.0501 24.0417 13.0501 23.276 12.5472 22.773C11.0461 21.2417 9.52248 19.7329 8.00638 18.2241Z" fill="#CA8DFF"/>
<path d="M25.299 17.5035C24.9987 17.2182 24.661 17.0606 24.3082 17.0606C23.963 17.0606 23.6403 17.2107 23.3626 17.4809C22.0266 18.8021 20.7056 20.1308 19.3771 21.4594L18.1012 22.743C17.8535 22.9907 17.7335 23.291 17.7109 23.7039C17.7335 24.0417 17.8385 24.3269 18.0412 24.5446C18.3339 24.8674 18.6416 25.1677 18.9568 25.4679C19.0094 25.513 19.0394 25.528 19.0469 25.528C19.0544 25.528 19.0844 25.5205 19.152 25.4604C19.212 25.4154 19.2646 25.3553 19.3171 25.3028L25.8544 18.7721C25.9219 18.7045 25.982 18.6445 26.0495 18.5769C26.1546 18.4643 26.1696 18.4117 26.1696 18.4042C26.1696 18.4042 26.1546 18.3592 26.0495 18.2541C25.7943 17.9989 25.5466 17.7512 25.299 17.5035Z" fill="#CA8DFF"/>
<path d="M6.31013 22.4803C5.5746 23.2159 4.86158 23.9291 4.14856 24.6422C4.67394 24.9349 5.06423 25.3328 5.34943 25.8357C5.8523 25.3253 6.35517 24.8298 6.84302 24.3344L7.5035 23.6738L7.20329 23.3736C6.90307 23.0808 6.60285 22.7805 6.31013 22.4803Z" fill="#CA8DFF"/>
<path d="M24.9538 23.1259L24.3158 22.4878L23.888 22.9157C23.6328 23.1709 23.3776 23.4261 23.1224 23.6813C23.858 24.417 24.571 25.1301 25.284 25.8432C25.5767 25.3253 25.9745 24.9274 26.4774 24.6497C25.9595 24.1242 25.4566 23.6213 24.9538 23.1259Z" fill="#CA8DFF"/>
<path d="M19.092 19.5527C18.7617 19.23 18.4465 18.9072 18.1313 18.5919L17.6584 18.119L17.1706 18.5319C16.9529 18.7195 16.7352 18.8997 16.5176 19.0873C17.073 19.5527 17.6209 20.0107 18.1688 20.4836C18.4765 20.1608 18.7842 19.853 19.092 19.5527Z" fill="#CA8DFF"/>
<path d="M19.9701 16.1598C19.5948 16.4826 19.2196 16.7979 18.8518 17.1056C19.1445 17.3984 19.4297 17.6761 19.7149 17.9614L20.1953 18.4418L21.126 17.526C20.7282 17.0681 20.3454 16.6177 19.9701 16.1598Z" fill="#CA8DFF"/>
</svg>
