<svg xmlns="http://www.w3.org/2000/svg" viewBox="0 0 17.35 14.61"><g data-name="Layer 2"><path d="m9.25 11.46.2.14 3.63 2.69a1.91 1.91 0 0 0 .65.29.59.59 0 0 0 .73-.31 2.69 2.69 0 0 0 .22-.62Q16 7.47 17.31 1.29a2 2 0 0 0 0-.49.76.76 0 0 0-1.01-.74l-.3.1-12.91 5c-.8.31-1.61.61-2.4.93a1.67 1.67 0 0 0-.58.4.38.38 0 0 0 .13.64l.21.08 4 1.21a.36.36 0 0 0 .33-.06l9-5.68a.79.79 0 0 1 .29-.11.59.59 0 0 1 .25.07l-.11.22-.11.11L7 9.46a.49.49 0 0 0-.17.36c-.07.94-.15 1.87-.22 2.81 0 .35 0 .69-.07 1.06a1.52 1.52 0 0 0 .9-.47l1.66-1.63Z" style="fill:#e6e7e8" data-name="Layer 1"/></g></svg>