<svg xmlns="http://www.w3.org/2000/svg" viewBox="0 0 22.72 22.74"><g data-name="Layer 2"><path d="M11.88 22.74h-1a.92.92 0 0 0-.29 0c-.31 0-.63-.06-.95-.11a11.23 11.23 0 0 1-6.8-3.73A11.28 11.28 0 0 1 0 11.59v-.74a11.63 11.63 0 0 1 .11-1.2A11.34 11.34 0 0 1 10.93 0a10.41 10.41 0 0 1 1.37 0 10.94 10.94 0 0 1 1.7.31 11.4 11.4 0 0 1 3.45 1.45 11.54 11.54 0 0 1 4.32 5 10.87 10.87 0 0 1 .95 4.42 12.71 12.71 0 0 1-.08 1.63 11.27 11.27 0 0 1-1 3.36 11.38 11.38 0 0 1-3.18 4 11.44 11.44 0 0 1-6.32 2.48.92.92 0 0 0-.26.09Zm7.84-17.13h-.09l-.37.17a3.21 3.21 0 0 1-.86.28 1.71 1.71 0 0 1-.45 0s-.11 0-.11 0 .05-.05.09-.06a2.12 2.12 0 0 0 .77-.59 3.3 3.3 0 0 0 .47-.84.62.62 0 0 0 0-.27c0-.13 0-.14-.12-.08-.28.13-.55.28-.83.4a4.71 4.71 0 0 1-1 .36.17.17 0 0 1-.19 0 4 4 0 0 0-.3-.28 3 3 0 0 0-.72-.49 3.2 3.2 0 0 0-1.85-.28 3.16 3.16 0 0 0-2.1 1.16A3.3 3.3 0 0 0 11.42 8v.17c0 .1 0 .12-.1.12a7.69 7.69 0 0 1-1 0 7.25 7.25 0 0 1-1.84-.43A9.28 9.28 0 0 1 5.52 6 4.82 4.82 0 0 1 4.4 4.67v.07a3.73 3.73 0 0 0-.42 2.2 2.44 2.44 0 0 0 .02.61 4.45 4.45 0 0 0 .39.75 3.27 3.27 0 0 0 1.35 1.25H5a2.16 2.16 0 0 1-1-.36s-.05 0-.05 0v.05a4.14 4.14 0 0 0 .87 2.18 2.29 2.29 0 0 0 .45.48c.21.15.41.3.63.44a3 3 0 0 0 1.1.46s0 0 .06 0H7l-.29.08a2.41 2.41 0 0 1-1.43 0h-.12c-.06 0-.08 0-.07.07a3.79 3.79 0 0 0 1 1.55 3 3 0 0 0 1.3.75 4.23 4.23 0 0 0 .71.13.36.36 0 0 1 .17 0 .23.23 0 0 1-.08.07c-.33.22-.67.44-1 .64a7.63 7.63 0 0 1-2.47.93c-.29.06-.59.08-.89.12h-.09c-.02 0 0 .06.08.08a7.65 7.65 0 0 0 2 1 9 9 0 0 0 3.29.48 9.82 9.82 0 0 0 1.09-.12 8.74 8.74 0 0 0 2.53-.88 9.33 9.33 0 0 0 2-1.43 9.77 9.77 0 0 0 1.62-1.95 10.92 10.92 0 0 0 1.18-2.49A11.35 11.35 0 0 0 18 9.22a10.88 10.88 0 0 0 0-1.4 2.08 2.08 0 0 1 0-.25.15.15 0 0 1 .07-.13l.22-.15a6.77 6.77 0 0 0 1-.92 2 2 0 0 0 .4-.72s.04-.02.03-.04Z" style="fill:#fff" data-name="Layer 1"/></g></svg>