<svg xmlns="http://www.w3.org/2000/svg" viewBox="0 0 22.5 20.99"><g data-name="Layer 2"><path d="M22.48 2.46a.26.26 0 0 0-.12 0l-.52.24a5 5 0 0 1-1.2.39 2.31 2.31 0 0 1-.64 0c-.06 0-.15 0-.16-.06S19.92 3 20 3a2.64 2.64 0 0 0 1.08-.82A4.92 4.92 0 0 0 21.72 1a1 1 0 0 0 .07-.38c0-.19 0-.2-.18-.12-.39.19-.77.4-1.16.57a8.55 8.55 0 0 1-1.36.5.25.25 0 0 1-.28-.07 3.78 3.78 0 0 0-.41-.39 4.31 4.31 0 0 0-1-.69A4.6 4.6 0 0 0 14.78 0a4.45 4.45 0 0 0-2.94 1.64 4.64 4.64 0 0 0-1 4.13 2 2 0 0 1 0 .24c0 .14 0 .16-.14.17H9.35a10.32 10.32 0 0 1-2.55-.6A13.25 13.25 0 0 1 2.53 3 6.94 6.94 0 0 1 1 1.14s0-.07-.1-.07l-.06.1a5.31 5.31 0 0 0-.61 3.1 3.36 3.36 0 0 0 .2.93 7.45 7.45 0 0 0 .54 1A4.84 4.84 0 0 0 2.84 8s.07 0 .07.06c-.37 0-.74 0-1.11-.08A3.15 3.15 0 0 1 .34 7.5H.21a.22.22 0 0 0 0 .08 5.71 5.71 0 0 0 1.21 3.06 3.49 3.49 0 0 0 .65.68c.28.21.57.42.87.61a4.27 4.27 0 0 0 1.65.64.08.08 0 0 1 .08 0s-.06 0-.09.05l-.41.12a3.3 3.3 0 0 1-2-.06L2 12.65c-.09 0-.11 0-.09.09a.14.14 0 0 0 0 .07A5.47 5.47 0 0 0 3.32 15a4.26 4.26 0 0 0 1.83 1 5.76 5.76 0 0 0 1 .19.42.42 0 0 1 .24.05.23.23 0 0 1-.11.09c-.46.31-.94.61-1.42.9a11.05 11.05 0 0 1-3.47 1.31c-.41.08-.83.11-1.24.16H.01c-.04 0 .08.09.12.12a10.65 10.65 0 0 0 2.76 1.48 12.46 12.46 0 0 0 4.62.7 11.34 11.34 0 0 0 1.54-.17 11.85 11.85 0 0 0 3.54-1.24 12.81 12.81 0 0 0 2.79-2 13.85 13.85 0 0 0 2.27-2.74 14.77 14.77 0 0 0 1.66-3.5 15.74 15.74 0 0 0 .76-3.79 14.4 14.4 0 0 0 0-2v-.35A.2.2 0 0 1 20.2 5l.31-.21a9.6 9.6 0 0 0 1.41-1.29 2.75 2.75 0 0 0 .57-1 .06.06 0 0 0-.01-.04Z" style="fill:#e6e7e8" data-name="Layer 1"/></g></svg>