<?xml version="1.0" encoding="utf-8"?>
<!-- Generator: Adobe Illustrator 23.0.1, SVG Export Plug-In . SVG Version: 6.00 Build 0)  -->
<svg version="1.1" id="Layer_1" xmlns="http://www.w3.org/2000/svg" xmlns:xlink="http://www.w3.org/1999/xlink" x="0px" y="0px"
	 viewBox="0 0 213 246.6" style="enable-background:new 0 0 213 246.6;" xml:space="preserve">
<style type="text/css">
	.st0{fill:#E6E7E7;}
</style>
<g>
	<path class="st0" d="M106.5,246.6C106.5,246.6,106.5,246.6,106.5,246.6c-0.8,0-1.6-0.3-2.1-1l-0.4-0.5
		c-15.3-18.4-34.4-35.4-56.7-50.5c-31.6-21.3-49.2-56.5-47.1-94.2C3.2,45.8,48.5,1.7,103.2,0C163.4-1.8,213,46.7,213,106.5
		c0,36-17.8,69.2-47.5,88.9c-21.4,14.2-40.5,31.1-56.9,50.3C108.1,246.3,107.3,246.6,106.5,246.6z M106.5,5.4c-1,0-2.1,0-3.2,0
		C51.4,7,8.5,48.9,5.6,100.8c-2,35.8,14.7,69.2,44.7,89.5c22,14.8,40.9,31.5,56.3,49.6c16.2-18.6,35-35,56-48.9
		c28.2-18.7,45.1-50.3,45.1-84.4C207.6,50.7,162.2,5.4,106.5,5.4z"/>
</g>
</svg>
