<?xml version="1.0" encoding="utf-8"?>
<!-- Generator: Adobe Illustrator 23.0.1, SVG Export Plug-In . SVG Version: 6.00 Build 0)  -->
<svg version="1.1" id="Layer_1" xmlns="http://www.w3.org/2000/svg" xmlns:xlink="http://www.w3.org/1999/xlink" x="0px" y="0px"
	 viewBox="0 0 213 246.6" style="enable-background:new 0 0 213 246.6;" xml:space="preserve">
<style type="text/css">
	.st0{fill:#E6E7E7;}
</style>
<g>
	<path class="st0" d="M106.5,0C106.5,0,106.5,0,106.5,0c0.8,0,1.6,0.3,2.1,1l0.4,0.5c15.3,18.4,34.4,35.4,56.7,50.5
		c31.6,21.3,49.2,56.5,47.1,94.2c-3,54.7-48.3,98.8-103,100.4C49.6,248.4,0,200,0,140.2c0-36,17.8-69.2,47.5-88.9
		C68.9,37.1,88,20.2,104.4,1C104.9,0.4,105.7,0,106.5,0z M106.5,241.2c1,0,2.1,0,3.2,0c51.9-1.6,94.9-43.5,97.8-95.3
		c2-35.8-14.7-69.2-44.7-89.5c-22-14.8-40.9-31.5-56.3-49.6c-16.2,18.6-35,35-56,48.9C22.3,74.4,5.4,106,5.4,140.2
		C5.4,195.9,50.8,241.2,106.5,241.2z"/>
</g>
</svg>
